STARTFONT 2.1
COMMENT
COMMENT Converted from OpenType font "LeagueSpartan-Light.otf" by "otf2bdf 3.0".
COMMENT
FONT -FreeType-League Spartan Light-Medium-R-Normal--14-100-100-100-P-61-ISO10646-1
SIZE 10 100 100
FONTBOUNDINGBOX 17 19 -2 -3
STARTPROPERTIES 19
FOUNDRY "FreeType"
FAMILY_NAME "League Spartan Light"
WEIGHT_NAME "Medium"
SLANT "R"
SETWIDTH_NAME "Normal"
ADD_STYLE_NAME ""
PIXEL_SIZE 14
POINT_SIZE 100
RESOLUTION_X 100
RESOLUTION_Y 100
SPACING "P"
AVERAGE_WIDTH 61
CHARSET_REGISTRY "ISO10646"
CHARSET_ENCODING "1"
FONT_ASCENT 9
FONT_DESCENT 3
COPYRIGHT "OFL"
_OTF_FONTFILE "LeagueSpartan-Light.otf"
_OTF_PSNAME "LeagueSpartan-Light"
ENDPROPERTIES
CHARS 561
STARTCHAR 000D
ENCODING 13
SWIDTH 576 0
DWIDTH 8 0
BBX 0 0 0 0
BITMAP
ENDCHAR
STARTCHAR 0020
ENCODING 32
SWIDTH 216 0
DWIDTH 3 0
BBX 0 0 0 0
BITMAP
ENDCHAR
STARTCHAR 0021
ENCODING 33
SWIDTH 288 0
DWIDTH 4 0
BBX 2 10 1 0
BITMAP
80
80
80
80
80
80
80
00
00
C0
ENDCHAR
STARTCHAR 0022
ENCODING 34
SWIDTH 360 0
DWIDTH 5 0
BBX 3 3 1 6
BITMAP
A0
A0
A0
ENDCHAR
STARTCHAR 0023
ENCODING 35
SWIDTH 648 0
DWIDTH 9 0
BBX 6 10 1 0
BITMAP
24
24
28
7C
48
48
FC
50
90
90
ENDCHAR
STARTCHAR 0024
ENCODING 36
SWIDTH 504 0
DWIDTH 7 0
BBX 5 12 1 -1
BITMAP
20
78
80
80
80
60
18
08
08
08
F0
20
ENDCHAR
STARTCHAR 0025
ENCODING 37
SWIDTH 720 0
DWIDTH 10 0
BBX 8 10 1 0
BITMAP
42
A4
A8
E8
10
10
26
29
49
46
ENDCHAR
STARTCHAR 0026
ENCODING 38
SWIDTH 648 0
DWIDTH 9 0
BBX 8 10 0 0
BITMAP
1C
24
24
24
18
68
45
82
45
79
ENDCHAR
STARTCHAR 0027
ENCODING 39
SWIDTH 216 0
DWIDTH 3 0
BBX 1 3 1 6
BITMAP
80
80
80
ENDCHAR
STARTCHAR 0028
ENCODING 40
SWIDTH 288 0
DWIDTH 4 0
BBX 2 12 1 -2
BITMAP
40
80
80
80
80
80
80
80
80
80
80
40
ENDCHAR
STARTCHAR 0029
ENCODING 41
SWIDTH 288 0
DWIDTH 4 0
BBX 3 12 0 -2
BITMAP
80
40
40
20
20
20
20
20
20
40
40
80
ENDCHAR
STARTCHAR 002A
ENCODING 42
SWIDTH 432 0
DWIDTH 6 0
BBX 3 3 1 6
BITMAP
40
E0
A0
ENDCHAR
STARTCHAR 002B
ENCODING 43
SWIDTH 576 0
DWIDTH 8 0
BBX 5 6 1 2
BITMAP
20
20
20
F8
20
20
ENDCHAR
STARTCHAR 002C
ENCODING 44
SWIDTH 288 0
DWIDTH 4 0
BBX 2 3 1 -1
BITMAP
80
C0
80
ENDCHAR
STARTCHAR 002D
ENCODING 45
SWIDTH 360 0
DWIDTH 5 0
BBX 3 1 1 3
BITMAP
E0
ENDCHAR
STARTCHAR 002E
ENCODING 46
SWIDTH 288 0
DWIDTH 4 0
BBX 2 1 1 1
BITMAP
C0
ENDCHAR
STARTCHAR 002F
ENCODING 47
SWIDTH 504 0
DWIDTH 7 0
BBX 5 10 1 -1
BITMAP
08
10
10
20
20
40
40
40
80
80
ENDCHAR
STARTCHAR 0030
ENCODING 48
SWIDTH 576 0
DWIDTH 8 0
BBX 6 10 1 0
BITMAP
70
88
84
84
84
84
84
84
88
70
ENDCHAR
STARTCHAR 0031
ENCODING 49
SWIDTH 288 0
DWIDTH 4 0
BBX 3 10 0 0
BITMAP
20
E0
20
20
20
20
20
20
20
20
ENDCHAR
STARTCHAR 0032
ENCODING 50
SWIDTH 504 0
DWIDTH 7 0
BBX 5 10 1 0
BITMAP
70
88
08
08
08
10
10
20
40
F8
ENDCHAR
STARTCHAR 0033
ENCODING 51
SWIDTH 504 0
DWIDTH 7 0
BBX 5 10 1 0
BITMAP
70
88
08
08
30
08
08
08
88
F0
ENDCHAR
STARTCHAR 0034
ENCODING 52
SWIDTH 504 0
DWIDTH 7 0
BBX 6 10 0 0
BITMAP
08
18
18
28
28
48
48
FC
08
08
ENDCHAR
STARTCHAR 0035
ENCODING 53
SWIDTH 504 0
DWIDTH 7 0
BBX 5 10 1 0
BITMAP
78
80
80
80
F0
88
08
08
88
70
ENDCHAR
STARTCHAR 0036
ENCODING 54
SWIDTH 576 0
DWIDTH 8 0
BBX 6 10 1 0
BITMAP
10
20
40
B0
C8
84
84
84
88
70
ENDCHAR
STARTCHAR 0037
ENCODING 55
SWIDTH 504 0
DWIDTH 7 0
BBX 5 10 1 0
BITMAP
F8
08
10
10
20
20
40
40
80
80
ENDCHAR
STARTCHAR 0038
ENCODING 56
SWIDTH 576 0
DWIDTH 8 0
BBX 5 10 1 0
BITMAP
70
88
88
88
70
88
88
88
88
70
ENDCHAR
STARTCHAR 0039
ENCODING 57
SWIDTH 576 0
DWIDTH 8 0
BBX 6 10 1 0
BITMAP
70
88
84
84
84
88
78
10
20
40
ENDCHAR
STARTCHAR 003A
ENCODING 58
SWIDTH 288 0
DWIDTH 4 0
BBX 1 6 1 0
BITMAP
80
80
00
00
80
80
ENDCHAR
STARTCHAR 003B
ENCODING 59
SWIDTH 288 0
DWIDTH 4 0
BBX 2 7 1 -1
BITMAP
80
80
00
00
00
C0
80
ENDCHAR
STARTCHAR 003C
ENCODING 60
SWIDTH 504 0
DWIDTH 7 0
BBX 5 6 1 2
BITMAP
08
30
C0
80
60
18
ENDCHAR
STARTCHAR 003D
ENCODING 61
SWIDTH 504 0
DWIDTH 7 0
BBX 5 3 1 3
BITMAP
F8
00
F8
ENDCHAR
STARTCHAR 003E
ENCODING 62
SWIDTH 504 0
DWIDTH 7 0
BBX 5 6 1 2
BITMAP
80
60
18
08
30
C0
ENDCHAR
STARTCHAR 003F
ENCODING 63
SWIDTH 432 0
DWIDTH 6 0
BBX 6 10 0 0
BITMAP
78
88
04
08
10
20
20
00
00
30
ENDCHAR
STARTCHAR 0040
ENCODING 64
SWIDTH 792 0
DWIDTH 11 0
BBX 10 10 0 0
BITMAP
1F00
2080
4C40
9240
A240
A240
9380
4C00
2080
1F00
ENDCHAR
STARTCHAR 0041
ENCODING 65
SWIDTH 576 0
DWIDTH 8 0
BBX 7 10 0 0
BITMAP
18
18
28
24
24
44
7C
42
82
82
ENDCHAR
STARTCHAR 0042
ENCODING 66
SWIDTH 504 0
DWIDTH 7 0
BBX 5 10 1 0
BITMAP
F0
88
88
88
F0
88
88
88
88
F0
ENDCHAR
STARTCHAR 0043
ENCODING 67
SWIDTH 648 0
DWIDTH 9 0
BBX 8 10 0 0
BITMAP
1E
21
40
80
80
80
80
40
20
1F
ENDCHAR
STARTCHAR 0044
ENCODING 68
SWIDTH 576 0
DWIDTH 8 0
BBX 6 10 1 0
BITMAP
F0
88
84
84
84
84
84
84
88
F0
ENDCHAR
STARTCHAR 0045
ENCODING 69
SWIDTH 504 0
DWIDTH 7 0
BBX 5 10 1 0
BITMAP
F8
80
80
80
F8
80
80
80
80
F8
ENDCHAR
STARTCHAR 0046
ENCODING 70
SWIDTH 432 0
DWIDTH 6 0
BBX 4 10 1 0
BITMAP
F0
80
80
80
F0
80
80
80
80
80
ENDCHAR
STARTCHAR 0047
ENCODING 71
SWIDTH 720 0
DWIDTH 10 0
BBX 9 10 0 0
BITMAP
1E00
6100
4000
8000
8780
8080
8080
4080
2100
1E00
ENDCHAR
STARTCHAR 0048
ENCODING 72
SWIDTH 648 0
DWIDTH 9 0
BBX 6 10 1 0
BITMAP
84
84
84
84
FC
84
84
84
84
84
ENDCHAR
STARTCHAR 0049
ENCODING 73
SWIDTH 216 0
DWIDTH 3 0
BBX 1 10 1 0
BITMAP
80
80
80
80
80
80
80
80
80
80
ENDCHAR
STARTCHAR 004A
ENCODING 74
SWIDTH 360 0
DWIDTH 5 0
BBX 4 10 0 0
BITMAP
10
10
10
10
10
10
10
10
10
F0
ENDCHAR
STARTCHAR 004B
ENCODING 75
SWIDTH 504 0
DWIDTH 7 0
BBX 5 10 1 0
BITMAP
88
90
A0
A0
C0
C0
A0
A0
90
88
ENDCHAR
STARTCHAR 004C
ENCODING 76
SWIDTH 432 0
DWIDTH 6 0
BBX 4 10 1 0
BITMAP
80
80
80
80
80
80
80
80
80
F0
ENDCHAR
STARTCHAR 004D
ENCODING 77
SWIDTH 720 0
DWIDTH 10 0
BBX 7 10 1 0
BITMAP
82
82
C6
C6
C6
AA
AA
AA
92
92
ENDCHAR
STARTCHAR 004E
ENCODING 78
SWIDTH 648 0
DWIDTH 9 0
BBX 7 10 1 0
BITMAP
82
C2
C2
A2
92
92
8A
8A
86
82
ENDCHAR
STARTCHAR 004F
ENCODING 79
SWIDTH 720 0
DWIDTH 10 0
BBX 9 10 0 0
BITMAP
1E00
2100
4080
8080
8080
8080
8080
4080
2100
1E00
ENDCHAR
STARTCHAR 0050
ENCODING 80
SWIDTH 504 0
DWIDTH 7 0
BBX 5 10 1 0
BITMAP
F0
88
88
88
88
F0
80
80
80
80
ENDCHAR
STARTCHAR 0051
ENCODING 81
SWIDTH 720 0
DWIDTH 10 0
BBX 9 12 0 -2
BITMAP
1E00
2100
4080
8080
8080
8080
8080
4080
6100
1E00
1480
0380
ENDCHAR
STARTCHAR 0052
ENCODING 82
SWIDTH 504 0
DWIDTH 7 0
BBX 5 10 1 0
BITMAP
F0
88
88
88
88
F0
90
90
88
88
ENDCHAR
STARTCHAR 0053
ENCODING 83
SWIDTH 504 0
DWIDTH 7 0
BBX 5 10 1 0
BITMAP
78
80
80
80
60
18
08
08
08
F0
ENDCHAR
STARTCHAR 0054
ENCODING 84
SWIDTH 504 0
DWIDTH 7 0
BBX 6 10 0 0
BITMAP
FC
10
10
10
10
10
10
10
10
10
ENDCHAR
STARTCHAR 0055
ENCODING 85
SWIDTH 648 0
DWIDTH 9 0
BBX 7 10 1 0
BITMAP
82
82
82
82
82
82
82
84
84
78
ENDCHAR
STARTCHAR 0056
ENCODING 86
SWIDTH 576 0
DWIDTH 8 0
BBX 8 10 0 0
BITMAP
81
82
42
42
44
24
24
28
18
18
ENDCHAR
STARTCHAR 0057
ENCODING 87
SWIDTH 792 0
DWIDTH 11 0
BBX 10 10 0 0
BITMAP
8440
8C40
4C40
4C80
5280
5280
5280
5280
2180
2100
ENDCHAR
STARTCHAR 0058
ENCODING 88
SWIDTH 576 0
DWIDTH 8 0
BBX 7 10 0 0
BITMAP
42
44
24
18
10
18
24
24
42
82
ENDCHAR
STARTCHAR 0059
ENCODING 89
SWIDTH 504 0
DWIDTH 7 0
BBX 7 10 0 0
BITMAP
82
44
44
28
28
10
10
10
10
10
ENDCHAR
STARTCHAR 005A
ENCODING 90
SWIDTH 576 0
DWIDTH 8 0
BBX 6 10 1 0
BITMAP
FC
08
08
10
10
20
40
40
80
FC
ENDCHAR
STARTCHAR 005B
ENCODING 91
SWIDTH 360 0
DWIDTH 5 0
BBX 3 13 1 -3
BITMAP
E0
80
80
80
80
80
80
80
80
80
80
80
E0
ENDCHAR
STARTCHAR 005C
ENCODING 92
SWIDTH 504 0
DWIDTH 7 0
BBX 6 10 0 0
BITMAP
80
40
40
20
20
10
10
08
08
04
ENDCHAR
STARTCHAR 005D
ENCODING 93
SWIDTH 360 0
DWIDTH 5 0
BBX 2 13 1 -3
BITMAP
C0
40
40
40
40
40
40
40
40
40
40
40
C0
ENDCHAR
STARTCHAR 005E
ENCODING 94
SWIDTH 432 0
DWIDTH 6 0
BBX 5 3 0 7
BITMAP
30
50
88
ENDCHAR
STARTCHAR 005F
ENCODING 95
SWIDTH 432 0
DWIDTH 6 0
BBX 5 1 0 -1
BITMAP
F8
ENDCHAR
STARTCHAR 0060
ENCODING 96
SWIDTH 360 0
DWIDTH 5 0
BBX 2 2 1 7
BITMAP
80
40
ENDCHAR
STARTCHAR 0061
ENCODING 97
SWIDTH 504 0
DWIDTH 7 0
BBX 6 6 0 0
BITMAP
3C
44
84
84
44
3C
ENDCHAR
STARTCHAR 0062
ENCODING 98
SWIDTH 504 0
DWIDTH 7 0
BBX 6 10 1 0
BITMAP
80
80
80
80
F0
88
84
84
88
F0
ENDCHAR
STARTCHAR 0063
ENCODING 99
SWIDTH 432 0
DWIDTH 6 0
BBX 5 6 0 0
BITMAP
38
40
80
80
40
38
ENDCHAR
STARTCHAR 0064
ENCODING 100
SWIDTH 504 0
DWIDTH 7 0
BBX 5 10 1 0
BITMAP
08
08
08
08
78
88
88
88
88
78
ENDCHAR
STARTCHAR 0065
ENCODING 101
SWIDTH 432 0
DWIDTH 6 0
BBX 6 6 0 0
BITMAP
78
84
FC
80
40
38
ENDCHAR
STARTCHAR 0066
ENCODING 102
SWIDTH 288 0
DWIDTH 4 0
BBX 4 10 0 0
BITMAP
30
40
40
40
F0
40
40
40
40
40
ENDCHAR
STARTCHAR 0067
ENCODING 103
SWIDTH 504 0
DWIDTH 7 0
BBX 6 9 0 -3
BITMAP
3C
44
84
84
44
3C
04
04
78
ENDCHAR
STARTCHAR 0068
ENCODING 104
SWIDTH 504 0
DWIDTH 7 0
BBX 5 10 1 0
BITMAP
80
80
80
80
F0
88
88
88
88
88
ENDCHAR
STARTCHAR 0069
ENCODING 105
SWIDTH 216 0
DWIDTH 3 0
BBX 1 10 1 0
BITMAP
80
00
00
00
80
80
80
80
80
80
ENDCHAR
STARTCHAR 006A
ENCODING 106
SWIDTH 216 0
DWIDTH 3 0
BBX 3 13 -1 -3
BITMAP
20
00
00
00
20
20
20
20
20
20
20
20
E0
ENDCHAR
STARTCHAR 006B
ENCODING 107
SWIDTH 360 0
DWIDTH 5 0
BBX 4 10 1 0
BITMAP
80
80
80
80
90
E0
80
C0
A0
90
ENDCHAR
STARTCHAR 006C
ENCODING 108
SWIDTH 216 0
DWIDTH 3 0
BBX 1 10 1 0
BITMAP
80
80
80
80
80
80
80
80
80
80
ENDCHAR
STARTCHAR 006D
ENCODING 109
SWIDTH 720 0
DWIDTH 10 0
BBX 8 6 1 0
BITMAP
F6
99
91
91
91
91
ENDCHAR
STARTCHAR 006E
ENCODING 110
SWIDTH 504 0
DWIDTH 7 0
BBX 5 6 1 0
BITMAP
F0
88
88
88
88
88
ENDCHAR
STARTCHAR 006F
ENCODING 111
SWIDTH 504 0
DWIDTH 7 0
BBX 6 6 0 0
BITMAP
38
44
84
84
44
38
ENDCHAR
STARTCHAR 0070
ENCODING 112
SWIDTH 504 0
DWIDTH 7 0
BBX 6 9 1 -3
BITMAP
F8
88
84
84
88
F8
80
80
80
ENDCHAR
STARTCHAR 0071
ENCODING 113
SWIDTH 504 0
DWIDTH 7 0
BBX 5 9 1 -3
BITMAP
78
88
88
88
88
78
08
08
08
ENDCHAR
STARTCHAR 0072
ENCODING 114
SWIDTH 360 0
DWIDTH 5 0
BBX 3 6 1 0
BITMAP
E0
80
80
80
80
80
ENDCHAR
STARTCHAR 0073
ENCODING 115
SWIDTH 360 0
DWIDTH 5 0
BBX 5 6 0 0
BITMAP
70
80
40
30
08
70
ENDCHAR
STARTCHAR 0074
ENCODING 116
SWIDTH 288 0
DWIDTH 4 0
BBX 4 8 0 0
BITMAP
40
40
F0
40
40
40
40
30
ENDCHAR
STARTCHAR 0075
ENCODING 117
SWIDTH 504 0
DWIDTH 7 0
BBX 5 6 1 0
BITMAP
88
88
88
88
88
70
ENDCHAR
STARTCHAR 0076
ENCODING 118
SWIDTH 504 0
DWIDTH 7 0
BBX 6 6 0 0
BITMAP
84
48
48
48
30
30
ENDCHAR
STARTCHAR 0077
ENCODING 119
SWIDTH 648 0
DWIDTH 9 0
BBX 8 6 0 0
BITMAP
89
59
5A
66
66
22
ENDCHAR
STARTCHAR 0078
ENCODING 120
SWIDTH 504 0
DWIDTH 7 0
BBX 5 6 1 0
BITMAP
88
50
60
60
90
88
ENDCHAR
STARTCHAR 0079
ENCODING 121
SWIDTH 432 0
DWIDTH 6 0
BBX 6 9 0 -3
BITMAP
84
48
48
50
30
20
20
20
40
ENDCHAR
STARTCHAR 007A
ENCODING 122
SWIDTH 432 0
DWIDTH 6 0
BBX 4 6 1 0
BITMAP
F0
20
40
40
80
F0
ENDCHAR
STARTCHAR 007B
ENCODING 123
SWIDTH 360 0
DWIDTH 5 0
BBX 3 13 1 -3
BITMAP
60
80
80
80
80
80
80
80
80
80
80
80
60
ENDCHAR
STARTCHAR 007C
ENCODING 124
SWIDTH 216 0
DWIDTH 3 0
BBX 1 11 1 -1
BITMAP
80
80
80
80
80
80
80
80
80
80
80
ENDCHAR
STARTCHAR 007D
ENCODING 125
SWIDTH 360 0
DWIDTH 5 0
BBX 3 13 1 -3
BITMAP
C0
40
40
40
40
40
20
40
40
40
40
40
C0
ENDCHAR
STARTCHAR 007E
ENCODING 126
SWIDTH 576 0
DWIDTH 8 0
BBX 6 3 1 3
BITMAP
40
A4
18
ENDCHAR
STARTCHAR 00A0
ENCODING 160
SWIDTH 216 0
DWIDTH 3 0
BBX 0 0 0 0
BITMAP
ENDCHAR
STARTCHAR 00A1
ENCODING 161
SWIDTH 288 0
DWIDTH 4 0
BBX 2 10 1 0
BITMAP
C0
00
00
80
80
80
40
40
40
40
ENDCHAR
STARTCHAR 00A2
ENCODING 162
SWIDTH 432 0
DWIDTH 6 0
BBX 5 8 0 -1
BITMAP
20
38
40
80
80
40
38
20
ENDCHAR
STARTCHAR 00A3
ENCODING 163
SWIDTH 576 0
DWIDTH 8 0
BBX 6 10 1 0
BITMAP
78
44
80
80
80
F8
40
40
E0
9C
ENDCHAR
STARTCHAR 00A4
ENCODING 164
SWIDTH 504 0
DWIDTH 7 0
BBX 6 6 0 1
BITMAP
BC
44
84
84
44
BC
ENDCHAR
STARTCHAR 00A5
ENCODING 165
SWIDTH 504 0
DWIDTH 7 0
BBX 7 10 0 0
BITMAP
82
44
44
28
28
7E
10
7E
10
10
ENDCHAR
STARTCHAR 00A6
ENCODING 166
SWIDTH 216 0
DWIDTH 3 0
BBX 1 10 1 0
BITMAP
80
80
80
00
00
00
00
80
80
80
ENDCHAR
STARTCHAR 00A7
ENCODING 167
SWIDTH 576 0
DWIDTH 8 0
BBX 5 13 1 -3
BITMAP
70
88
80
40
70
88
88
C8
30
08
08
88
70
ENDCHAR
STARTCHAR 00A8
ENCODING 168
SWIDTH 504 0
DWIDTH 7 0
BBX 4 1 1 7
BITMAP
90
ENDCHAR
STARTCHAR 00A9
ENCODING 169
SWIDTH 720 0
DWIDTH 10 0
BBX 10 10 0 0
BITMAP
1E00
2100
4080
8C40
9040
9040
8C40
4080
2100
1E00
ENDCHAR
STARTCHAR 00AA
ENCODING 170
SWIDTH 432 0
DWIDTH 6 0
BBX 4 4 1 6
BITMAP
F0
90
90
F0
ENDCHAR
STARTCHAR 00AB
ENCODING 171
SWIDTH 504 0
DWIDTH 7 0
BBX 4 5 1 1
BITMAP
50
90
A0
90
50
ENDCHAR
STARTCHAR 00AC
ENCODING 172
SWIDTH 432 0
DWIDTH 6 0
BBX 4 3 1 1
BITMAP
F0
10
10
ENDCHAR
STARTCHAR 00AD
ENCODING 173
SWIDTH 360 0
DWIDTH 5 0
BBX 3 1 1 3
BITMAP
E0
ENDCHAR
STARTCHAR 00AE
ENCODING 174
SWIDTH 432 0
DWIDTH 6 0
BBX 5 5 0 5
BITMAP
70
88
B8
A8
78
ENDCHAR
STARTCHAR 00AF
ENCODING 175
SWIDTH 504 0
DWIDTH 7 0
BBX 4 1 1 7
BITMAP
F0
ENDCHAR
STARTCHAR 00B0
ENCODING 176
SWIDTH 288 0
DWIDTH 4 0
BBX 2 1 1 8
BITMAP
C0
ENDCHAR
STARTCHAR 00B1
ENCODING 177
SWIDTH 576 0
DWIDTH 8 0
BBX 5 8 1 1
BITMAP
20
20
20
F8
20
20
00
F8
ENDCHAR
STARTCHAR 00B2
ENCODING 178
SWIDTH 216 0
DWIDTH 3 0
BBX 2 4 1 6
BITMAP
C0
40
80
80
ENDCHAR
STARTCHAR 00B3
ENCODING 179
SWIDTH 216 0
DWIDTH 3 0
BBX 3 3 0 6
BITMAP
60
40
E0
ENDCHAR
STARTCHAR 00B4
ENCODING 180
SWIDTH 504 0
DWIDTH 7 0
BBX 2 2 2 7
BITMAP
40
80
ENDCHAR
STARTCHAR 00B5
ENCODING 181
SWIDTH 504 0
DWIDTH 7 0
BBX 5 9 1 -3
BITMAP
88
88
88
88
88
F0
80
80
80
ENDCHAR
STARTCHAR 00B6
ENCODING 182
SWIDTH 504 0
DWIDTH 7 0
BBX 6 10 0 0
BITMAP
7C
74
F4
74
74
14
14
14
14
14
ENDCHAR
STARTCHAR 00B7
ENCODING 183
SWIDTH 288 0
DWIDTH 4 0
BBX 1 2 1 2
BITMAP
80
80
ENDCHAR
STARTCHAR 00B8
ENCODING 184
SWIDTH 360 0
DWIDTH 5 0
BBX 3 3 1 -3
BITMAP
40
20
E0
ENDCHAR
STARTCHAR 00B9
ENCODING 185
SWIDTH 144 0
DWIDTH 2 0
BBX 1 2 0 7
BITMAP
80
80
ENDCHAR
STARTCHAR 00BA
ENCODING 186
SWIDTH 432 0
DWIDTH 6 0
BBX 4 4 1 6
BITMAP
60
90
90
60
ENDCHAR
STARTCHAR 00BB
ENCODING 187
SWIDTH 504 0
DWIDTH 7 0
BBX 5 5 1 1
BITMAP
A0
90
48
90
A0
ENDCHAR
STARTCHAR 00BC
ENCODING 188
SWIDTH 648 0
DWIDTH 9 0
BBX 7 10 1 0
BITMAP
80
84
88
88
92
22
26
4A
4A
06
ENDCHAR
STARTCHAR 00BD
ENCODING 189
SWIDTH 720 0
DWIDTH 10 0
BBX 8 10 1 0
BITMAP
80
84
88
88
97
11
21
41
42
06
ENDCHAR
STARTCHAR 00BE
ENCODING 190
SWIDTH 720 0
DWIDTH 10 0
BBX 8 10 1 0
BITMAP
E0
22
44
24
29
A9
53
15
25
23
ENDCHAR
STARTCHAR 00BF
ENCODING 191
SWIDTH 432 0
DWIDTH 6 0
BBX 5 10 0 0
BITMAP
30
00
00
20
20
20
40
80
88
70
ENDCHAR
STARTCHAR 00C0
ENCODING 192
SWIDTH 576 0
DWIDTH 8 0
BBX 7 12 0 0
BITMAP
10
00
18
18
28
24
24
44
7C
42
82
82
ENDCHAR
STARTCHAR 00C1
ENCODING 193
SWIDTH 576 0
DWIDTH 8 0
BBX 7 12 0 0
BITMAP
08
10
18
18
28
24
24
44
7C
42
82
82
ENDCHAR
STARTCHAR 00C2
ENCODING 194
SWIDTH 576 0
DWIDTH 8 0
BBX 7 12 0 1
BITMAP
18
20
18
18
28
24
24
44
7C
42
82
82
ENDCHAR
STARTCHAR 00C3
ENCODING 195
SWIDTH 576 0
DWIDTH 8 0
BBX 7 12 0 0
BITMAP
3C
00
18
18
28
24
24
44
7C
42
82
82
ENDCHAR
STARTCHAR 00C4
ENCODING 196
SWIDTH 576 0
DWIDTH 8 0
BBX 7 12 0 0
BITMAP
24
00
18
18
28
24
24
44
7C
42
82
82
ENDCHAR
STARTCHAR 00C5
ENCODING 197
SWIDTH 576 0
DWIDTH 8 0
BBX 7 12 0 0
BITMAP
38
10
18
18
28
24
24
44
7C
42
82
82
ENDCHAR
STARTCHAR 00C6
ENCODING 198
SWIDTH 792 0
DWIDTH 11 0
BBX 11 10 0 0
BITMAP
07E0
0C00
0C00
1400
13E0
2400
2400
7C00
4400
83E0
ENDCHAR
STARTCHAR 00C7
ENCODING 199
SWIDTH 648 0
DWIDTH 9 0
BBX 8 13 0 -3
BITMAP
1E
21
40
80
80
80
80
40
20
1F
08
06
0C
ENDCHAR
STARTCHAR 00C8
ENCODING 200
SWIDTH 504 0
DWIDTH 7 0
BBX 5 12 1 0
BITMAP
40
00
F8
80
80
80
F8
80
80
80
80
F8
ENDCHAR
STARTCHAR 00C9
ENCODING 201
SWIDTH 504 0
DWIDTH 7 0
BBX 5 12 1 0
BITMAP
30
00
F8
80
80
80
F8
80
80
80
80
F8
ENDCHAR
STARTCHAR 00CA
ENCODING 202
SWIDTH 504 0
DWIDTH 7 0
BBX 5 13 1 0
BITMAP
20
50
00
F8
80
80
80
F8
80
80
80
80
F8
ENDCHAR
STARTCHAR 00CB
ENCODING 203
SWIDTH 504 0
DWIDTH 7 0
BBX 5 12 1 0
BITMAP
50
00
F8
80
80
80
F8
80
80
80
80
F8
ENDCHAR
STARTCHAR 00CC
ENCODING 204
SWIDTH 216 0
DWIDTH 3 0
BBX 2 12 0 0
BITMAP
80
00
40
40
40
40
40
40
40
40
40
40
ENDCHAR
STARTCHAR 00CD
ENCODING 205
SWIDTH 216 0
DWIDTH 3 0
BBX 2 12 1 0
BITMAP
C0
00
80
80
80
80
80
80
80
80
80
80
ENDCHAR
STARTCHAR 00CE
ENCODING 206
SWIDTH 216 0
DWIDTH 3 0
BBX 3 12 0 1
BITMAP
E0
00
40
40
40
40
40
40
40
40
40
40
ENDCHAR
STARTCHAR 00CF
ENCODING 207
SWIDTH 216 0
DWIDTH 3 0
BBX 4 12 -1 0
BITMAP
D0
00
20
20
20
20
20
20
20
20
20
20
ENDCHAR
STARTCHAR 00D0
ENCODING 208
SWIDTH 576 0
DWIDTH 8 0
BBX 7 10 0 0
BITMAP
78
44
44
42
42
F2
42
42
44
78
ENDCHAR
STARTCHAR 00D1
ENCODING 209
SWIDTH 648 0
DWIDTH 9 0
BBX 7 13 1 0
BITMAP
24
18
00
82
C2
C2
A2
92
92
8A
8A
86
82
ENDCHAR
STARTCHAR 00D2
ENCODING 210
SWIDTH 720 0
DWIDTH 10 0
BBX 9 12 0 0
BITMAP
1000
0800
1E00
2100
4080
8080
8080
8080
8080
4080
2100
1E00
ENDCHAR
STARTCHAR 00D3
ENCODING 211
SWIDTH 720 0
DWIDTH 10 0
BBX 9 12 0 0
BITMAP
0400
0800
1E00
2100
4080
8080
8080
8080
8080
4080
2100
1E00
ENDCHAR
STARTCHAR 00D4
ENCODING 212
SWIDTH 720 0
DWIDTH 10 0
BBX 9 12 0 0
BITMAP
0C00
1000
1E00
2100
4080
8080
8080
8080
8080
4080
2100
1E00
ENDCHAR
STARTCHAR 00D5
ENCODING 213
SWIDTH 720 0
DWIDTH 10 0
BBX 9 13 0 0
BITMAP
0200
1C00
0000
1E00
2100
4080
8080
8080
8080
8080
4080
2100
1E00
ENDCHAR
STARTCHAR 00D6
ENCODING 214
SWIDTH 720 0
DWIDTH 10 0
BBX 9 12 0 0
BITMAP
1200
0000
1E00
2100
4080
8080
8080
8080
8080
4080
2100
1E00
ENDCHAR
STARTCHAR 00D7
ENCODING 215
SWIDTH 504 0
DWIDTH 7 0
BBX 5 5 1 2
BITMAP
88
50
20
50
88
ENDCHAR
STARTCHAR 00D8
ENCODING 216
SWIDTH 720 0
DWIDTH 10 0
BBX 9 10 0 0
BITMAP
1E80
2100
4180
8280
8480
8880
9080
6080
6100
9E00
ENDCHAR
STARTCHAR 00D9
ENCODING 217
SWIDTH 648 0
DWIDTH 9 0
BBX 7 12 1 0
BITMAP
20
10
82
82
82
82
82
82
82
84
84
78
ENDCHAR
STARTCHAR 00DA
ENCODING 218
SWIDTH 648 0
DWIDTH 9 0
BBX 7 12 1 0
BITMAP
10
00
82
82
82
82
82
82
82
84
84
78
ENDCHAR
STARTCHAR 00DB
ENCODING 219
SWIDTH 648 0
DWIDTH 9 0
BBX 7 12 1 1
BITMAP
38
00
82
82
82
82
82
82
82
84
84
78
ENDCHAR
STARTCHAR 00DC
ENCODING 220
SWIDTH 648 0
DWIDTH 9 0
BBX 7 12 1 0
BITMAP
48
00
82
82
82
82
82
82
82
84
84
78
ENDCHAR
STARTCHAR 00DD
ENCODING 221
SWIDTH 504 0
DWIDTH 7 0
BBX 7 12 0 0
BITMAP
08
10
82
44
44
28
28
10
10
10
10
10
ENDCHAR
STARTCHAR 00DE
ENCODING 222
SWIDTH 504 0
DWIDTH 7 0
BBX 5 10 1 0
BITMAP
80
80
F0
88
88
88
88
F0
80
80
ENDCHAR
STARTCHAR 00DF
ENCODING 223
SWIDTH 504 0
DWIDTH 7 0
BBX 5 10 1 0
BITMAP
70
90
88
90
A0
90
88
88
88
B0
ENDCHAR
STARTCHAR 00E0
ENCODING 224
SWIDTH 504 0
DWIDTH 7 0
BBX 6 9 0 0
BITMAP
30
08
00
3C
44
84
84
44
3C
ENDCHAR
STARTCHAR 00E1
ENCODING 225
SWIDTH 504 0
DWIDTH 7 0
BBX 6 9 0 0
BITMAP
08
30
00
3C
44
84
84
44
3C
ENDCHAR
STARTCHAR 00E2
ENCODING 226
SWIDTH 504 0
DWIDTH 7 0
BBX 6 9 0 0
BITMAP
10
28
00
3C
44
84
84
44
3C
ENDCHAR
STARTCHAR 00E3
ENCODING 227
SWIDTH 504 0
DWIDTH 7 0
BBX 6 9 0 0
BITMAP
04
78
00
3C
44
84
84
44
3C
ENDCHAR
STARTCHAR 00E4
ENCODING 228
SWIDTH 504 0
DWIDTH 7 0
BBX 6 8 0 0
BITMAP
2C
00
3C
44
84
84
44
3C
ENDCHAR
STARTCHAR 00E5
ENCODING 229
SWIDTH 504 0
DWIDTH 7 0
BBX 6 9 0 0
BITMAP
38
28
10
3C
44
84
84
44
3C
ENDCHAR
STARTCHAR 00E6
ENCODING 230
SWIDTH 720 0
DWIDTH 10 0
BBX 9 6 0 0
BITMAP
7700
0880
2F80
D800
8800
7780
ENDCHAR
STARTCHAR 00E7
ENCODING 231
SWIDTH 432 0
DWIDTH 6 0
BBX 5 9 0 -3
BITMAP
38
40
80
80
40
78
20
10
70
ENDCHAR
STARTCHAR 00E8
ENCODING 232
SWIDTH 432 0
DWIDTH 6 0
BBX 6 9 0 0
BITMAP
20
10
00
78
84
FC
80
40
38
ENDCHAR
STARTCHAR 00E9
ENCODING 233
SWIDTH 432 0
DWIDTH 6 0
BBX 6 9 0 0
BITMAP
10
20
00
78
84
FC
80
40
38
ENDCHAR
STARTCHAR 00EA
ENCODING 234
SWIDTH 432 0
DWIDTH 6 0
BBX 6 8 0 1
BITMAP
38
00
78
84
FC
80
40
38
ENDCHAR
STARTCHAR 00EB
ENCODING 235
SWIDTH 432 0
DWIDTH 6 0
BBX 6 8 0 0
BITMAP
68
00
78
84
FC
80
40
38
ENDCHAR
STARTCHAR 00EC
ENCODING 236
SWIDTH 144 0
DWIDTH 2 0
BBX 2 9 0 0
BITMAP
80
40
00
80
80
80
80
80
80
ENDCHAR
STARTCHAR 00ED
ENCODING 237
SWIDTH 144 0
DWIDTH 2 0
BBX 2 9 0 0
BITMAP
40
80
00
80
80
80
80
80
80
ENDCHAR
STARTCHAR 00EE
ENCODING 238
SWIDTH 144 0
DWIDTH 2 0
BBX 4 8 -1 1
BITMAP
F0
00
40
40
40
40
40
40
ENDCHAR
STARTCHAR 00EF
ENCODING 239
SWIDTH 144 0
DWIDTH 2 0
BBX 4 8 -1 0
BITMAP
90
00
40
40
40
40
40
40
ENDCHAR
STARTCHAR 00F0
ENCODING 240
SWIDTH 576 0
DWIDTH 8 0
BBX 6 9 1 1
BITMAP
E0
50
08
78
84
84
84
88
78
ENDCHAR
STARTCHAR 00F1
ENCODING 241
SWIDTH 504 0
DWIDTH 7 0
BBX 5 9 1 0
BITMAP
40
B0
00
F0
88
88
88
88
88
ENDCHAR
STARTCHAR 00F2
ENCODING 242
SWIDTH 504 0
DWIDTH 7 0
BBX 6 9 0 0
BITMAP
20
18
00
38
44
84
84
44
38
ENDCHAR
STARTCHAR 00F3
ENCODING 243
SWIDTH 504 0
DWIDTH 7 0
BBX 6 9 0 0
BITMAP
18
20
00
38
44
84
84
44
38
ENDCHAR
STARTCHAR 00F4
ENCODING 244
SWIDTH 504 0
DWIDTH 7 0
BBX 6 8 0 1
BITMAP
38
00
38
44
84
84
44
38
ENDCHAR
STARTCHAR 00F5
ENCODING 245
SWIDTH 504 0
DWIDTH 7 0
BBX 6 9 0 0
BITMAP
20
58
00
38
44
84
84
44
38
ENDCHAR
STARTCHAR 00F6
ENCODING 246
SWIDTH 504 0
DWIDTH 7 0
BBX 6 8 0 0
BITMAP
68
00
38
44
84
84
44
38
ENDCHAR
STARTCHAR 00F7
ENCODING 247
SWIDTH 504 0
DWIDTH 7 0
BBX 5 5 1 2
BITMAP
20
00
F8
00
20
ENDCHAR
STARTCHAR 00F8
ENCODING 248
SWIDTH 504 0
DWIDTH 7 0
BBX 6 6 0 0
BITMAP
3C
4C
94
A4
44
B8
ENDCHAR
STARTCHAR 00F9
ENCODING 249
SWIDTH 504 0
DWIDTH 7 0
BBX 5 9 1 0
BITMAP
60
10
00
88
88
88
88
88
70
ENDCHAR
STARTCHAR 00FA
ENCODING 250
SWIDTH 504 0
DWIDTH 7 0
BBX 5 9 1 0
BITMAP
30
40
00
88
88
88
88
88
70
ENDCHAR
STARTCHAR 00FB
ENCODING 251
SWIDTH 504 0
DWIDTH 7 0
BBX 5 9 1 0
BITMAP
20
50
00
88
88
88
88
88
70
ENDCHAR
STARTCHAR 00FC
ENCODING 252
SWIDTH 504 0
DWIDTH 7 0
BBX 5 8 1 0
BITMAP
D0
00
88
88
88
88
88
70
ENDCHAR
STARTCHAR 00FD
ENCODING 253
SWIDTH 432 0
DWIDTH 6 0
BBX 6 12 0 -3
BITMAP
10
20
00
84
48
48
50
30
20
20
20
40
ENDCHAR
STARTCHAR 00FE
ENCODING 254
SWIDTH 504 0
DWIDTH 7 0
BBX 6 13 1 -3
BITMAP
80
80
80
80
F0
88
84
84
88
F0
80
80
80
ENDCHAR
STARTCHAR 00FF
ENCODING 255
SWIDTH 432 0
DWIDTH 6 0
BBX 6 11 0 -3
BITMAP
48
00
84
48
48
50
30
20
20
20
40
ENDCHAR
STARTCHAR 0100
ENCODING 256
SWIDTH 576 0
DWIDTH 8 0
BBX 7 12 0 0
BITMAP
3C
00
18
18
28
24
24
44
7C
42
82
82
ENDCHAR
STARTCHAR 0101
ENCODING 257
SWIDTH 504 0
DWIDTH 7 0
BBX 6 8 0 0
BITMAP
38
00
3C
44
84
84
44
3C
ENDCHAR
STARTCHAR 0102
ENCODING 258
SWIDTH 576 0
DWIDTH 8 0
BBX 7 12 0 1
BITMAP
18
00
18
18
28
24
24
44
7C
42
82
82
ENDCHAR
STARTCHAR 0103
ENCODING 259
SWIDTH 504 0
DWIDTH 7 0
BBX 6 9 0 0
BITMAP
28
10
00
3C
44
84
84
44
3C
ENDCHAR
STARTCHAR 0104
ENCODING 260
SWIDTH 576 0
DWIDTH 8 0
BBX 8 13 0 -3
BITMAP
18
18
28
24
24
44
7C
42
82
82
02
04
03
ENDCHAR
STARTCHAR 0105
ENCODING 261
SWIDTH 504 0
DWIDTH 7 0
BBX 7 9 0 -3
BITMAP
3C
44
84
84
44
3C
04
08
06
ENDCHAR
STARTCHAR 0106
ENCODING 262
SWIDTH 648 0
DWIDTH 9 0
BBX 8 12 0 0
BITMAP
06
08
1E
21
40
80
80
80
80
40
20
1F
ENDCHAR
STARTCHAR 0107
ENCODING 263
SWIDTH 432 0
DWIDTH 6 0
BBX 5 9 0 0
BITMAP
08
30
00
38
40
80
80
40
38
ENDCHAR
STARTCHAR 0108
ENCODING 264
SWIDTH 648 0
DWIDTH 9 0
BBX 8 12 0 0
BITMAP
0C
12
1E
21
40
80
80
80
80
40
20
1F
ENDCHAR
STARTCHAR 0109
ENCODING 265
SWIDTH 432 0
DWIDTH 6 0
BBX 5 8 0 1
BITMAP
70
00
38
40
80
80
40
38
ENDCHAR
STARTCHAR 010A
ENCODING 266
SWIDTH 648 0
DWIDTH 9 0
BBX 8 12 0 0
BITMAP
0C
00
1E
21
40
80
80
80
80
40
20
1F
ENDCHAR
STARTCHAR 010B
ENCODING 267
SWIDTH 432 0
DWIDTH 6 0
BBX 5 8 0 0
BITMAP
30
00
38
40
80
80
40
38
ENDCHAR
STARTCHAR 010C
ENCODING 268
SWIDTH 648 0
DWIDTH 9 0
BBX 8 12 0 0
BITMAP
12
0C
1E
21
40
80
80
80
80
40
20
1F
ENDCHAR
STARTCHAR 010D
ENCODING 269
SWIDTH 432 0
DWIDTH 6 0
BBX 5 9 0 0
BITMAP
48
30
00
38
40
80
80
40
38
ENDCHAR
STARTCHAR 010E
ENCODING 270
SWIDTH 576 0
DWIDTH 8 0
BBX 6 12 1 0
BITMAP
50
20
F0
88
84
84
84
84
84
84
88
F0
ENDCHAR
STARTCHAR 010F
ENCODING 271
SWIDTH 576 0
DWIDTH 8 0
BBX 7 10 1 0
BITMAP
0A
08
08
08
78
88
88
88
88
78
ENDCHAR
STARTCHAR 0110
ENCODING 272
SWIDTH 576 0
DWIDTH 8 0
BBX 7 10 0 0
BITMAP
78
44
44
42
42
F2
42
42
44
78
ENDCHAR
STARTCHAR 0111
ENCODING 273
SWIDTH 504 0
DWIDTH 7 0
BBX 6 10 1 0
BITMAP
08
08
1C
08
78
88
88
88
88
78
ENDCHAR
STARTCHAR 0112
ENCODING 274
SWIDTH 504 0
DWIDTH 7 0
BBX 5 12 1 0
BITMAP
70
00
F8
80
80
80
F8
80
80
80
80
F8
ENDCHAR
STARTCHAR 0113
ENCODING 275
SWIDTH 504 0
DWIDTH 7 0
BBX 6 8 0 0
BITMAP
78
00
78
84
FC
80
40
38
ENDCHAR
STARTCHAR 0114
ENCODING 276
SWIDTH 504 0
DWIDTH 7 0
BBX 5 13 1 0
BITMAP
10
70
00
F8
80
80
80
F8
80
80
80
80
F8
ENDCHAR
STARTCHAR 0115
ENCODING 277
SWIDTH 432 0
DWIDTH 6 0
BBX 6 8 0 1
BITMAP
30
00
78
84
FC
80
40
38
ENDCHAR
STARTCHAR 0116
ENCODING 278
SWIDTH 504 0
DWIDTH 7 0
BBX 5 12 1 0
BITMAP
20
00
F8
80
80
80
F8
80
80
80
80
F8
ENDCHAR
STARTCHAR 0117
ENCODING 279
SWIDTH 504 0
DWIDTH 7 0
BBX 6 8 0 0
BITMAP
10
00
78
84
FC
80
40
38
ENDCHAR
STARTCHAR 0118
ENCODING 280
SWIDTH 504 0
DWIDTH 7 0
BBX 5 13 1 -3
BITMAP
F8
80
80
80
F8
80
80
80
80
F8
20
20
38
ENDCHAR
STARTCHAR 0119
ENCODING 281
SWIDTH 504 0
DWIDTH 7 0
BBX 6 9 0 -3
BITMAP
78
84
FC
80
40
38
10
20
18
ENDCHAR
STARTCHAR 011A
ENCODING 282
SWIDTH 504 0
DWIDTH 7 0
BBX 5 12 1 0
BITMAP
50
20
F8
80
80
80
F8
80
80
80
80
F8
ENDCHAR
STARTCHAR 011B
ENCODING 283
SWIDTH 504 0
DWIDTH 7 0
BBX 6 9 0 0
BITMAP
48
30
00
78
84
FC
80
40
38
ENDCHAR
STARTCHAR 011C
ENCODING 284
SWIDTH 720 0
DWIDTH 10 0
BBX 9 12 0 0
BITMAP
0C00
1000
1E00
6100
4000
8000
8780
8080
8080
4080
2100
1E00
ENDCHAR
STARTCHAR 011D
ENCODING 285
SWIDTH 504 0
DWIDTH 7 0
BBX 6 11 0 -2
BITMAP
38
00
3C
44
84
84
44
3C
04
04
78
ENDCHAR
STARTCHAR 011E
ENCODING 286
SWIDTH 720 0
DWIDTH 10 0
BBX 9 12 0 0
BITMAP
1000
0C00
1E00
6100
4000
8000
8780
8080
8080
4080
2100
1E00
ENDCHAR
STARTCHAR 011F
ENCODING 287
SWIDTH 504 0
DWIDTH 7 0
BBX 6 12 0 -3
BITMAP
28
10
00
3C
44
84
84
44
3C
04
04
78
ENDCHAR
STARTCHAR 0120
ENCODING 288
SWIDTH 720 0
DWIDTH 10 0
BBX 9 12 0 0
BITMAP
0800
0000
1E00
6100
4000
8000
8780
8080
8080
4080
2100
1E00
ENDCHAR
STARTCHAR 0121
ENCODING 289
SWIDTH 504 0
DWIDTH 7 0
BBX 6 11 0 -3
BITMAP
10
00
3C
44
84
84
44
3C
04
04
78
ENDCHAR
STARTCHAR 0122
ENCODING 290
SWIDTH 720 0
DWIDTH 10 0
BBX 9 13 0 -3
BITMAP
1E00
6100
4000
8000
8780
8080
8080
4080
2100
1E00
0000
0C00
0800
ENDCHAR
STARTCHAR 0123
ENCODING 291
SWIDTH 504 0
DWIDTH 7 0
BBX 6 12 0 -3
BITMAP
10
10
00
3C
44
84
84
44
3C
04
04
78
ENDCHAR
STARTCHAR 0124
ENCODING 292
SWIDTH 648 0
DWIDTH 9 0
BBX 6 12 1 1
BITMAP
38
00
84
84
84
84
FC
84
84
84
84
84
ENDCHAR
STARTCHAR 0125
ENCODING 293
SWIDTH 504 0
DWIDTH 7 0
BBX 5 13 1 0
BITMAP
60
10
00
80
80
80
80
F0
88
88
88
88
88
ENDCHAR
STARTCHAR 0126
ENCODING 294
SWIDTH 648 0
DWIDTH 9 0
BBX 8 10 0 0
BITMAP
42
42
FF
42
7E
42
42
42
42
42
ENDCHAR
STARTCHAR 0127
ENCODING 295
SWIDTH 504 0
DWIDTH 7 0
BBX 6 10 0 0
BITMAP
40
40
E0
40
78
44
44
44
44
44
ENDCHAR
STARTCHAR 0128
ENCODING 296
SWIDTH 216 0
DWIDTH 3 0
BBX 3 12 0 0
BITMAP
E0
00
40
40
40
40
40
40
40
40
40
40
ENDCHAR
STARTCHAR 0129
ENCODING 297
SWIDTH 144 0
DWIDTH 2 0
BBX 4 9 -1 0
BITMAP
C0
30
00
40
40
40
40
40
40
ENDCHAR
STARTCHAR 012A
ENCODING 298
SWIDTH 216 0
DWIDTH 3 0
BBX 4 12 -1 0
BITMAP
F0
00
20
20
20
20
20
20
20
20
20
20
ENDCHAR
STARTCHAR 012B
ENCODING 299
SWIDTH 144 0
DWIDTH 2 0
BBX 4 9 -1 0
BITMAP
F0
00
00
40
40
40
40
40
40
ENDCHAR
STARTCHAR 012C
ENCODING 300
SWIDTH 216 0
DWIDTH 3 0
BBX 3 12 0 1
BITMAP
E0
00
40
40
40
40
40
40
40
40
40
40
ENDCHAR
STARTCHAR 012D
ENCODING 301
SWIDTH 144 0
DWIDTH 2 0
BBX 2 8 0 1
BITMAP
C0
00
80
80
80
80
80
80
ENDCHAR
STARTCHAR 012E
ENCODING 302
SWIDTH 216 0
DWIDTH 3 0
BBX 3 13 0 -3
BITMAP
40
40
40
40
40
40
40
40
40
40
80
80
E0
ENDCHAR
STARTCHAR 012F
ENCODING 303
SWIDTH 216 0
DWIDTH 3 0
BBX 3 13 0 -3
BITMAP
40
00
00
00
40
40
40
40
40
40
80
80
E0
ENDCHAR
STARTCHAR 0130
ENCODING 304
SWIDTH 216 0
DWIDTH 3 0
BBX 1 12 1 0
BITMAP
80
00
80
80
80
80
80
80
80
80
80
80
ENDCHAR
STARTCHAR 0131
ENCODING 305
SWIDTH 144 0
DWIDTH 2 0
BBX 1 6 1 0
BITMAP
80
80
80
80
80
80
ENDCHAR
STARTCHAR 0134
ENCODING 308
SWIDTH 360 0
DWIDTH 5 0
BBX 5 12 0 1
BITMAP
18
00
10
10
10
10
10
10
10
10
10
F0
ENDCHAR
STARTCHAR 0135
ENCODING 309
SWIDTH 216 0
DWIDTH 3 0
BBX 4 12 -1 -3
BITMAP
20
50
00
20
20
20
20
20
20
20
20
E0
ENDCHAR
STARTCHAR 0136
ENCODING 310
SWIDTH 504 0
DWIDTH 7 0
BBX 5 13 1 -3
BITMAP
88
90
A0
A0
C0
C0
A0
A0
90
88
00
20
20
ENDCHAR
STARTCHAR 0137
ENCODING 311
SWIDTH 360 0
DWIDTH 5 0
BBX 4 13 1 -3
BITMAP
80
80
80
80
90
E0
80
C0
A0
90
00
40
40
ENDCHAR
STARTCHAR 0138
ENCODING 312
SWIDTH 432 0
DWIDTH 6 0
BBX 4 6 1 0
BITMAP
90
A0
C0
C0
A0
90
ENDCHAR
STARTCHAR 0139
ENCODING 313
SWIDTH 432 0
DWIDTH 6 0
BBX 4 12 1 0
BITMAP
20
40
80
80
80
80
80
80
80
80
80
F0
ENDCHAR
STARTCHAR 013A
ENCODING 314
SWIDTH 216 0
DWIDTH 3 0
BBX 2 13 1 0
BITMAP
40
80
00
80
80
80
80
80
80
80
80
80
80
ENDCHAR
STARTCHAR 013B
ENCODING 315
SWIDTH 432 0
DWIDTH 6 0
BBX 4 13 1 -3
BITMAP
80
80
80
80
80
80
80
80
80
F0
00
60
40
ENDCHAR
STARTCHAR 013C
ENCODING 316
SWIDTH 216 0
DWIDTH 3 0
BBX 1 13 1 -3
BITMAP
80
80
80
80
80
80
80
80
80
80
00
80
80
ENDCHAR
STARTCHAR 013D
ENCODING 317
SWIDTH 432 0
DWIDTH 6 0
BBX 5 10 1 0
BITMAP
88
80
80
80
80
80
80
80
80
F0
ENDCHAR
STARTCHAR 013E
ENCODING 318
SWIDTH 216 0
DWIDTH 3 0
BBX 3 10 1 0
BITMAP
A0
80
80
80
80
80
80
80
80
80
ENDCHAR
STARTCHAR 013F
ENCODING 319
SWIDTH 432 0
DWIDTH 6 0
BBX 4 10 1 0
BITMAP
80
80
80
80
80
B0
80
80
80
F0
ENDCHAR
STARTCHAR 0140
ENCODING 320
SWIDTH 288 0
DWIDTH 4 0
BBX 3 10 1 0
BITMAP
80
80
80
80
E0
80
80
80
80
80
ENDCHAR
STARTCHAR 0141
ENCODING 321
SWIDTH 504 0
DWIDTH 7 0
BBX 6 10 0 0
BITMAP
40
40
40
40
60
C0
40
40
40
7C
ENDCHAR
STARTCHAR 0142
ENCODING 322
SWIDTH 216 0
DWIDTH 3 0
BBX 3 10 0 0
BITMAP
40
40
40
40
60
C0
40
40
40
40
ENDCHAR
STARTCHAR 0143
ENCODING 323
SWIDTH 648 0
DWIDTH 9 0
BBX 7 12 1 0
BITMAP
08
10
82
C2
C2
A2
92
92
8A
8A
86
82
ENDCHAR
STARTCHAR 0144
ENCODING 324
SWIDTH 504 0
DWIDTH 7 0
BBX 5 9 1 0
BITMAP
10
20
00
F0
88
88
88
88
88
ENDCHAR
STARTCHAR 0145
ENCODING 325
SWIDTH 648 0
DWIDTH 9 0
BBX 7 13 1 -3
BITMAP
82
C2
C2
A2
92
92
8A
8A
86
82
00
10
10
ENDCHAR
STARTCHAR 0146
ENCODING 326
SWIDTH 504 0
DWIDTH 7 0
BBX 5 9 1 -3
BITMAP
F0
88
88
88
88
88
00
20
20
ENDCHAR
STARTCHAR 0147
ENCODING 327
SWIDTH 648 0
DWIDTH 9 0
BBX 7 12 1 0
BITMAP
28
10
82
C2
C2
A2
92
92
8A
8A
86
82
ENDCHAR
STARTCHAR 0148
ENCODING 328
SWIDTH 504 0
DWIDTH 7 0
BBX 5 9 1 0
BITMAP
10
60
00
F0
88
88
88
88
88
ENDCHAR
STARTCHAR 014A
ENCODING 330
SWIDTH 648 0
DWIDTH 9 0
BBX 7 13 1 -3
BITMAP
82
C2
C2
A2
92
92
8A
8A
86
82
02
02
0C
ENDCHAR
STARTCHAR 014B
ENCODING 331
SWIDTH 504 0
DWIDTH 7 0
BBX 5 9 1 -3
BITMAP
F0
88
88
88
88
88
08
08
30
ENDCHAR
STARTCHAR 014C
ENCODING 332
SWIDTH 720 0
DWIDTH 10 0
BBX 9 12 0 0
BITMAP
1E00
0000
1E00
2100
4080
8080
8080
8080
8080
4080
2100
1E00
ENDCHAR
STARTCHAR 014D
ENCODING 333
SWIDTH 504 0
DWIDTH 7 0
BBX 6 8 0 0
BITMAP
78
00
38
44
84
84
44
38
ENDCHAR
STARTCHAR 014E
ENCODING 334
SWIDTH 720 0
DWIDTH 10 0
BBX 9 12 0 0
BITMAP
1000
0C00
1E00
2100
4080
8080
8080
8080
8080
4080
2100
1E00
ENDCHAR
STARTCHAR 014F
ENCODING 335
SWIDTH 504 0
DWIDTH 7 0
BBX 6 9 0 0
BITMAP
08
38
00
38
44
84
84
44
38
ENDCHAR
STARTCHAR 0150
ENCODING 336
SWIDTH 720 0
DWIDTH 10 0
BBX 9 13 0 0
BITMAP
0A00
1400
0000
1E00
2100
4080
8080
8080
8080
8080
4080
2100
1E00
ENDCHAR
STARTCHAR 0151
ENCODING 337
SWIDTH 504 0
DWIDTH 7 0
BBX 6 10 0 0
BITMAP
24
28
40
00
38
44
84
84
44
38
ENDCHAR
STARTCHAR 0152
ENCODING 338
SWIDTH 792 0
DWIDTH 11 0
BBX 10 10 0 0
BITMAP
1FC0
6400
4400
8400
87C0
8400
8400
4400
2400
1FC0
ENDCHAR
STARTCHAR 0153
ENCODING 339
SWIDTH 864 0
DWIDTH 12 0
BBX 11 6 0 0
BITMAP
39C0
4620
87E0
8400
4620
39C0
ENDCHAR
STARTCHAR 0154
ENCODING 340
SWIDTH 504 0
DWIDTH 7 0
BBX 5 12 1 0
BITMAP
30
00
F0
88
88
88
88
F0
90
90
88
88
ENDCHAR
STARTCHAR 0155
ENCODING 341
SWIDTH 360 0
DWIDTH 5 0
BBX 3 9 1 0
BITMAP
20
C0
00
E0
80
80
80
80
80
ENDCHAR
STARTCHAR 0156
ENCODING 342
SWIDTH 504 0
DWIDTH 7 0
BBX 5 13 1 -3
BITMAP
F0
88
88
88
88
F0
90
90
88
88
00
20
20
ENDCHAR
STARTCHAR 0157
ENCODING 343
SWIDTH 360 0
DWIDTH 5 0
BBX 3 9 1 -3
BITMAP
E0
80
80
80
80
80
00
40
40
ENDCHAR
STARTCHAR 0158
ENCODING 344
SWIDTH 504 0
DWIDTH 7 0
BBX 5 12 1 0
BITMAP
50
20
F0
88
88
88
88
F0
90
90
88
88
ENDCHAR
STARTCHAR 0159
ENCODING 345
SWIDTH 360 0
DWIDTH 5 0
BBX 3 9 1 0
BITMAP
20
C0
00
E0
80
80
80
80
80
ENDCHAR
STARTCHAR 015A
ENCODING 346
SWIDTH 504 0
DWIDTH 7 0
BBX 5 12 1 0
BITMAP
10
20
78
80
80
80
60
18
08
08
08
F0
ENDCHAR
STARTCHAR 015B
ENCODING 347
SWIDTH 360 0
DWIDTH 5 0
BBX 5 9 0 0
BITMAP
10
20
00
70
80
40
30
08
70
ENDCHAR
STARTCHAR 015C
ENCODING 348
SWIDTH 504 0
DWIDTH 7 0
BBX 5 12 1 0
BITMAP
70
00
78
80
80
80
60
18
08
08
08
F0
ENDCHAR
STARTCHAR 015D
ENCODING 349
SWIDTH 360 0
DWIDTH 5 0
BBX 5 8 0 1
BITMAP
70
00
70
80
40
30
08
70
ENDCHAR
STARTCHAR 015E
ENCODING 350
SWIDTH 504 0
DWIDTH 7 0
BBX 5 13 1 -3
BITMAP
78
80
80
80
60
18
08
08
08
F0
40
30
70
ENDCHAR
STARTCHAR 015F
ENCODING 351
SWIDTH 360 0
DWIDTH 5 0
BBX 5 9 0 -3
BITMAP
70
80
40
30
08
70
20
10
70
ENDCHAR
STARTCHAR 0160
ENCODING 352
SWIDTH 504 0
DWIDTH 7 0
BBX 5 12 1 0
BITMAP
50
20
78
80
80
80
60
18
08
08
08
F0
ENDCHAR
STARTCHAR 0161
ENCODING 353
SWIDTH 360 0
DWIDTH 5 0
BBX 5 9 0 0
BITMAP
40
30
00
70
80
40
30
08
70
ENDCHAR
STARTCHAR 0162
ENCODING 354
SWIDTH 504 0
DWIDTH 7 0
BBX 6 13 0 -3
BITMAP
FC
10
10
10
10
10
10
10
10
10
20
18
30
ENDCHAR
STARTCHAR 0163
ENCODING 355
SWIDTH 288 0
DWIDTH 4 0
BBX 4 11 0 -3
BITMAP
40
40
F0
40
40
40
40
30
20
10
30
ENDCHAR
STARTCHAR 0164
ENCODING 356
SWIDTH 504 0
DWIDTH 7 0
BBX 6 12 0 0
BITMAP
28
10
FC
10
10
10
10
10
10
10
10
10
ENDCHAR
STARTCHAR 0165
ENCODING 357
SWIDTH 288 0
DWIDTH 4 0
BBX 5 9 0 0
BITMAP
08
40
40
F0
40
40
40
40
30
ENDCHAR
STARTCHAR 0166
ENCODING 358
SWIDTH 504 0
DWIDTH 7 0
BBX 6 10 0 0
BITMAP
FC
10
10
10
FC
10
10
10
10
10
ENDCHAR
STARTCHAR 0167
ENCODING 359
SWIDTH 288 0
DWIDTH 4 0
BBX 4 8 0 0
BITMAP
40
40
F0
40
F0
40
40
30
ENDCHAR
STARTCHAR 0168
ENCODING 360
SWIDTH 648 0
DWIDTH 9 0
BBX 7 12 1 0
BITMAP
78
00
82
82
82
82
82
82
82
84
84
78
ENDCHAR
STARTCHAR 0169
ENCODING 361
SWIDTH 504 0
DWIDTH 7 0
BBX 5 9 1 0
BITMAP
48
30
00
88
88
88
88
88
70
ENDCHAR
STARTCHAR 016A
ENCODING 362
SWIDTH 648 0
DWIDTH 9 0
BBX 7 12 1 0
BITMAP
78
00
82
82
82
82
82
82
82
84
84
78
ENDCHAR
STARTCHAR 016B
ENCODING 363
SWIDTH 504 0
DWIDTH 7 0
BBX 5 9 1 0
BITMAP
F0
00
00
88
88
88
88
88
70
ENDCHAR
STARTCHAR 016C
ENCODING 364
SWIDTH 648 0
DWIDTH 9 0
BBX 7 12 1 1
BITMAP
30
00
82
82
82
82
82
82
82
84
84
78
ENDCHAR
STARTCHAR 016D
ENCODING 365
SWIDTH 504 0
DWIDTH 7 0
BBX 5 9 1 0
BITMAP
10
70
00
88
88
88
88
88
70
ENDCHAR
STARTCHAR 016E
ENCODING 366
SWIDTH 648 0
DWIDTH 9 0
BBX 7 12 1 0
BITMAP
30
00
82
82
82
82
82
82
82
84
84
78
ENDCHAR
STARTCHAR 016F
ENCODING 367
SWIDTH 504 0
DWIDTH 7 0
BBX 5 9 1 0
BITMAP
60
50
20
88
88
88
88
88
70
ENDCHAR
STARTCHAR 0170
ENCODING 368
SWIDTH 648 0
DWIDTH 9 0
BBX 7 13 1 0
BITMAP
20
48
10
82
82
82
82
82
82
82
84
84
78
ENDCHAR
STARTCHAR 0171
ENCODING 369
SWIDTH 504 0
DWIDTH 7 0
BBX 5 10 1 0
BITMAP
48
50
80
00
88
88
88
88
88
70
ENDCHAR
STARTCHAR 0172
ENCODING 370
SWIDTH 648 0
DWIDTH 9 0
BBX 7 13 1 -3
BITMAP
82
82
82
82
82
82
82
84
84
78
20
20
38
ENDCHAR
STARTCHAR 0173
ENCODING 371
SWIDTH 504 0
DWIDTH 7 0
BBX 5 9 1 -3
BITMAP
88
88
88
88
88
70
40
40
70
ENDCHAR
STARTCHAR 0174
ENCODING 372
SWIDTH 792 0
DWIDTH 11 0
BBX 10 12 0 1
BITMAP
0E00
0000
8440
8C40
4C40
4C80
5280
5280
5280
5280
2180
2100
ENDCHAR
STARTCHAR 0175
ENCODING 373
SWIDTH 648 0
DWIDTH 9 0
BBX 8 8 0 1
BITMAP
1C
00
89
59
5A
66
66
22
ENDCHAR
STARTCHAR 0176
ENCODING 374
SWIDTH 504 0
DWIDTH 7 0
BBX 7 13 0 0
BITMAP
10
28
00
82
44
44
28
28
10
10
10
10
10
ENDCHAR
STARTCHAR 0177
ENCODING 375
SWIDTH 432 0
DWIDTH 6 0
BBX 6 11 0 -2
BITMAP
78
00
84
48
48
50
30
20
20
20
40
ENDCHAR
STARTCHAR 0178
ENCODING 376
SWIDTH 504 0
DWIDTH 7 0
BBX 7 12 0 0
BITMAP
28
00
82
44
44
28
28
10
10
10
10
10
ENDCHAR
STARTCHAR 0179
ENCODING 377
SWIDTH 576 0
DWIDTH 8 0
BBX 6 12 1 0
BITMAP
10
20
FC
08
08
10
10
20
40
40
80
FC
ENDCHAR
STARTCHAR 017A
ENCODING 378
SWIDTH 432 0
DWIDTH 6 0
BBX 4 9 1 0
BITMAP
20
40
00
F0
20
40
40
80
F0
ENDCHAR
STARTCHAR 017B
ENCODING 379
SWIDTH 576 0
DWIDTH 8 0
BBX 6 12 1 0
BITMAP
20
00
FC
08
08
10
10
20
40
40
80
FC
ENDCHAR
STARTCHAR 017C
ENCODING 380
SWIDTH 432 0
DWIDTH 6 0
BBX 4 9 1 0
BITMAP
40
00
00
F0
20
40
40
80
F0
ENDCHAR
STARTCHAR 017D
ENCODING 381
SWIDTH 576 0
DWIDTH 8 0
BBX 6 12 1 0
BITMAP
50
20
FC
08
08
10
10
20
40
40
80
FC
ENDCHAR
STARTCHAR 017E
ENCODING 382
SWIDTH 432 0
DWIDTH 6 0
BBX 4 9 1 0
BITMAP
90
60
00
F0
20
40
40
80
F0
ENDCHAR
STARTCHAR 018F
ENCODING 399
SWIDTH 648 0
DWIDTH 9 0
BBX 9 10 0 0
BITMAP
3C00
4300
0100
0100
0080
FF80
8100
4100
4100
3E00
ENDCHAR
STARTCHAR 0192
ENCODING 402
SWIDTH 288 0
DWIDTH 4 0
BBX 7 13 -2 -3
BITMAP
06
08
08
10
3C
10
10
10
10
10
20
20
E0
ENDCHAR
STARTCHAR 01A0
ENCODING 416
SWIDTH 720 0
DWIDTH 10 0
BBX 10 11 0 0
BITMAP
0040
1E40
2180
4080
8080
8080
8080
8080
4080
6100
1E00
ENDCHAR
STARTCHAR 01A1
ENCODING 417
SWIDTH 504 0
DWIDTH 7 0
BBX 7 7 0 0
BITMAP
02
3A
44
84
84
44
38
ENDCHAR
STARTCHAR 01AF
ENCODING 431
SWIDTH 720 0
DWIDTH 10 0
BBX 9 12 1 0
BITMAP
0080
0080
8300
8200
8200
8200
8200
8200
8200
8400
8400
7800
ENDCHAR
STARTCHAR 01B0
ENCODING 432
SWIDTH 576 0
DWIDTH 8 0
BBX 7 8 1 0
BITMAP
02
02
8A
8C
88
88
88
70
ENDCHAR
STARTCHAR 01C4
ENCODING 452
SWIDTH 1152 0
DWIDTH 16 0
BBX 14 13 1 0
BITMAP
0050
0020
0000
F0FC
8808
8410
8410
8420
8420
8440
8440
8880
F1FC
ENDCHAR
STARTCHAR 01C5
ENCODING 453
SWIDTH 936 0
DWIDTH 13 0
BBX 12 10 1 0
BITMAP
F000
88A0
8840
8400
85F0
8420
8440
8480
8880
F1F0
ENDCHAR
STARTCHAR 01C6
ENCODING 454
SWIDTH 936 0
DWIDTH 13 0
BBX 11 10 1 0
BITMAP
0800
0920
08C0
0800
79E0
8840
8840
8880
8900
79E0
ENDCHAR
STARTCHAR 01C7
ENCODING 455
SWIDTH 792 0
DWIDTH 11 0
BBX 10 10 1 0
BITMAP
8040
8040
8040
8040
8040
8040
8040
8040
8480
F780
ENDCHAR
STARTCHAR 01C8
ENCODING 456
SWIDTH 648 0
DWIDTH 9 0
BBX 7 13 1 -3
BITMAP
82
80
80
80
82
82
82
82
82
F2
02
02
06
ENDCHAR
STARTCHAR 01C9
ENCODING 457
SWIDTH 432 0
DWIDTH 6 0
BBX 4 13 1 -3
BITMAP
90
80
80
80
90
90
90
90
90
90
10
10
60
ENDCHAR
STARTCHAR 01CA
ENCODING 458
SWIDTH 1008 0
DWIDTH 14 0
BBX 12 10 1 0
BITMAP
8210
C210
C210
A210
9210
9210
8A10
8A10
8690
82F0
ENDCHAR
STARTCHAR 01CB
ENCODING 459
SWIDTH 864 0
DWIDTH 12 0
BBX 10 13 1 -3
BITMAP
8240
C200
C200
A200
9240
9240
8A40
8A40
8640
8240
0040
0040
00C0
ENDCHAR
STARTCHAR 01CC
ENCODING 460
SWIDTH 720 0
DWIDTH 10 0
BBX 8 13 1 -3
BITMAP
01
00
00
00
F1
89
89
89
89
89
01
01
06
ENDCHAR
STARTCHAR 01CE
ENCODING 462
SWIDTH 504 0
DWIDTH 7 0
BBX 6 9 0 0
BITMAP
20
18
00
3C
44
84
84
44
3C
ENDCHAR
STARTCHAR 01D0
ENCODING 464
SWIDTH 144 0
DWIDTH 2 0
BBX 4 9 -1 0
BITMAP
90
60
00
40
40
40
40
40
40
ENDCHAR
STARTCHAR 01D2
ENCODING 466
SWIDTH 504 0
DWIDTH 7 0
BBX 6 9 0 0
BITMAP
08
30
00
38
44
84
84
44
38
ENDCHAR
STARTCHAR 01D4
ENCODING 468
SWIDTH 504 0
DWIDTH 7 0
BBX 5 9 1 0
BITMAP
50
20
00
88
88
88
88
88
70
ENDCHAR
STARTCHAR 01D6
ENCODING 470
SWIDTH 504 0
DWIDTH 7 0
BBX 5 10 1 0
BITMAP
F0
00
D0
00
88
88
88
88
88
70
ENDCHAR
STARTCHAR 01D8
ENCODING 472
SWIDTH 504 0
DWIDTH 7 0
BBX 5 11 1 1
BITMAP
20
40
00
D0
00
88
88
88
88
88
70
ENDCHAR
STARTCHAR 01DA
ENCODING 474
SWIDTH 504 0
DWIDTH 7 0
BBX 5 11 1 0
BITMAP
50
20
00
D0
00
88
88
88
88
88
70
ENDCHAR
STARTCHAR 01DC
ENCODING 476
SWIDTH 504 0
DWIDTH 7 0
BBX 5 11 1 1
BITMAP
20
00
00
D0
00
88
88
88
88
88
70
ENDCHAR
STARTCHAR 01E6
ENCODING 486
SWIDTH 720 0
DWIDTH 10 0
BBX 9 12 0 0
BITMAP
1400
0800
1E00
6100
4000
8000
8780
8080
8080
4080
2100
1E00
ENDCHAR
STARTCHAR 01E7
ENCODING 487
SWIDTH 504 0
DWIDTH 7 0
BBX 6 12 0 -3
BITMAP
24
18
00
3C
44
84
84
44
3C
04
04
78
ENDCHAR
STARTCHAR 01EA
ENCODING 490
SWIDTH 720 0
DWIDTH 10 0
BBX 9 13 0 -3
BITMAP
1E00
2100
4080
8080
8080
8080
8080
4080
2100
1E00
0800
0800
0600
ENDCHAR
STARTCHAR 01EB
ENCODING 491
SWIDTH 504 0
DWIDTH 7 0
BBX 6 9 0 -3
BITMAP
38
44
84
84
44
38
10
10
1C
ENDCHAR
STARTCHAR 01FA
ENCODING 506
SWIDTH 576 0
DWIDTH 8 0
BBX 7 14 0 1
BITMAP
18
00
38
10
18
18
28
24
24
44
7C
42
82
82
ENDCHAR
STARTCHAR 01FB
ENCODING 507
SWIDTH 504 0
DWIDTH 7 0
BBX 6 12 0 0
BITMAP
18
20
00
38
28
10
3C
44
84
84
44
3C
ENDCHAR
STARTCHAR 01FC
ENCODING 508
SWIDTH 792 0
DWIDTH 11 0
BBX 11 13 0 0
BITMAP
0080
0100
0000
07E0
0C00
0C00
1400
13E0
2400
2400
7C00
4400
83E0
ENDCHAR
STARTCHAR 01FD
ENCODING 509
SWIDTH 720 0
DWIDTH 10 0
BBX 9 9 0 0
BITMAP
0400
0800
0000
7700
0880
2F80
D800
8800
7780
ENDCHAR
STARTCHAR 01FE
ENCODING 510
SWIDTH 720 0
DWIDTH 10 0
BBX 9 13 0 0
BITMAP
0400
0800
0000
1E80
2100
4180
8280
8480
8880
9080
6080
6100
9E00
ENDCHAR
STARTCHAR 01FF
ENCODING 511
SWIDTH 504 0
DWIDTH 7 0
BBX 6 9 0 0
BITMAP
18
20
00
3C
4C
94
A4
44
B8
ENDCHAR
STARTCHAR 0200
ENCODING 512
SWIDTH 576 0
DWIDTH 8 0
BBX 7 12 0 0
BITMAP
2C
10
18
18
28
24
24
44
7C
42
82
82
ENDCHAR
STARTCHAR 0201
ENCODING 513
SWIDTH 504 0
DWIDTH 7 0
BBX 6 9 0 0
BITMAP
48
34
00
3C
44
84
84
44
3C
ENDCHAR
STARTCHAR 0202
ENCODING 514
SWIDTH 576 0
DWIDTH 8 0
BBX 7 12 0 0
BITMAP
18
00
18
18
28
24
24
44
7C
42
82
82
ENDCHAR
STARTCHAR 0203
ENCODING 515
SWIDTH 504 0
DWIDTH 7 0
BBX 6 9 0 0
BITMAP
10
28
00
3C
44
84
84
44
3C
ENDCHAR
STARTCHAR 0204
ENCODING 516
SWIDTH 504 0
DWIDTH 7 0
BBX 5 12 1 0
BITMAP
D0
08
F8
80
80
80
F8
80
80
80
80
F8
ENDCHAR
STARTCHAR 0205
ENCODING 517
SWIDTH 432 0
DWIDTH 6 0
BBX 6 9 0 0
BITMAP
58
24
00
78
84
FC
80
40
38
ENDCHAR
STARTCHAR 0206
ENCODING 518
SWIDTH 504 0
DWIDTH 7 0
BBX 5 12 1 0
BITMAP
70
00
F8
80
80
80
F8
80
80
80
80
F8
ENDCHAR
STARTCHAR 0207
ENCODING 519
SWIDTH 432 0
DWIDTH 6 0
BBX 6 9 0 0
BITMAP
30
48
00
78
84
FC
80
40
38
ENDCHAR
STARTCHAR 0208
ENCODING 520
SWIDTH 216 0
DWIDTH 3 0
BBX 5 12 -1 0
BITMAP
D0
08
20
20
20
20
20
20
20
20
20
20
ENDCHAR
STARTCHAR 0209
ENCODING 521
SWIDTH 144 0
DWIDTH 2 0
BBX 5 9 -1 0
BITMAP
B0
48
00
40
40
40
40
40
40
ENDCHAR
STARTCHAR 020A
ENCODING 522
SWIDTH 216 0
DWIDTH 3 0
BBX 3 12 0 0
BITMAP
E0
00
40
40
40
40
40
40
40
40
40
40
ENDCHAR
STARTCHAR 020B
ENCODING 523
SWIDTH 144 0
DWIDTH 2 0
BBX 4 9 -1 0
BITMAP
60
90
00
40
40
40
40
40
40
ENDCHAR
STARTCHAR 020C
ENCODING 524
SWIDTH 720 0
DWIDTH 10 0
BBX 9 12 0 0
BITMAP
3400
0A00
1E00
2100
4080
8080
8080
8080
8080
4080
2100
1E00
ENDCHAR
STARTCHAR 020D
ENCODING 525
SWIDTH 504 0
DWIDTH 7 0
BBX 6 9 0 0
BITMAP
58
24
00
38
44
84
84
44
38
ENDCHAR
STARTCHAR 020E
ENCODING 526
SWIDTH 720 0
DWIDTH 10 0
BBX 9 13 0 0
BITMAP
0C00
1200
0000
1E00
2100
4080
8080
8080
8080
8080
4080
2100
1E00
ENDCHAR
STARTCHAR 020F
ENCODING 527
SWIDTH 504 0
DWIDTH 7 0
BBX 6 9 0 0
BITMAP
10
68
00
38
44
84
84
44
38
ENDCHAR
STARTCHAR 0210
ENCODING 528
SWIDTH 504 0
DWIDTH 7 0
BBX 5 12 1 0
BITMAP
D0
08
F0
88
88
88
88
F0
90
90
88
88
ENDCHAR
STARTCHAR 0211
ENCODING 529
SWIDTH 360 0
DWIDTH 5 0
BBX 5 9 0 0
BITMAP
B0
48
00
70
40
40
40
40
40
ENDCHAR
STARTCHAR 0212
ENCODING 530
SWIDTH 504 0
DWIDTH 7 0
BBX 5 12 1 0
BITMAP
70
00
F0
88
88
88
88
F0
90
90
88
88
ENDCHAR
STARTCHAR 0213
ENCODING 531
SWIDTH 360 0
DWIDTH 5 0
BBX 4 9 0 0
BITMAP
20
D0
00
70
40
40
40
40
40
ENDCHAR
STARTCHAR 0214
ENCODING 532
SWIDTH 648 0
DWIDTH 9 0
BBX 7 12 1 0
BITMAP
58
00
82
82
82
82
82
82
82
84
84
78
ENDCHAR
STARTCHAR 0215
ENCODING 533
SWIDTH 504 0
DWIDTH 7 0
BBX 5 9 1 0
BITMAP
90
48
00
88
88
88
88
88
70
ENDCHAR
STARTCHAR 0216
ENCODING 534
SWIDTH 648 0
DWIDTH 9 0
BBX 7 12 1 0
BITMAP
30
00
82
82
82
82
82
82
82
84
84
78
ENDCHAR
STARTCHAR 0217
ENCODING 535
SWIDTH 504 0
DWIDTH 7 0
BBX 5 9 1 0
BITMAP
20
50
00
88
88
88
88
88
70
ENDCHAR
STARTCHAR 0218
ENCODING 536
SWIDTH 504 0
DWIDTH 7 0
BBX 5 13 1 -3
BITMAP
78
80
80
80
60
18
08
08
08
F0
00
20
20
ENDCHAR
STARTCHAR 0219
ENCODING 537
SWIDTH 360 0
DWIDTH 5 0
BBX 5 9 0 -3
BITMAP
70
80
40
30
08
70
00
20
20
ENDCHAR
STARTCHAR 021A
ENCODING 538
SWIDTH 504 0
DWIDTH 7 0
BBX 6 13 0 -3
BITMAP
FC
10
10
10
10
10
10
10
10
10
00
10
10
ENDCHAR
STARTCHAR 021B
ENCODING 539
SWIDTH 288 0
DWIDTH 4 0
BBX 4 11 0 -3
BITMAP
40
40
F0
40
40
40
40
30
00
30
20
ENDCHAR
STARTCHAR 022A
ENCODING 554
SWIDTH 720 0
DWIDTH 10 0
BBX 9 14 0 0
BITMAP
1E00
0000
1200
0000
1E00
2100
4080
8080
8080
8080
8080
4080
2100
1E00
ENDCHAR
STARTCHAR 022B
ENCODING 555
SWIDTH 504 0
DWIDTH 7 0
BBX 6 10 0 0
BITMAP
78
00
68
00
38
44
84
84
44
38
ENDCHAR
STARTCHAR 022C
ENCODING 556
SWIDTH 720 0
DWIDTH 10 0
BBX 9 15 0 0
BITMAP
1E00
0000
0200
1C00
0000
1E00
2100
4080
8080
8080
8080
8080
4080
2100
1E00
ENDCHAR
STARTCHAR 022D
ENCODING 557
SWIDTH 504 0
DWIDTH 7 0
BBX 6 11 0 0
BITMAP
78
00
24
58
00
38
44
84
84
44
38
ENDCHAR
STARTCHAR 0230
ENCODING 560
SWIDTH 720 0
DWIDTH 10 0
BBX 9 14 0 0
BITMAP
1E00
0000
0800
0000
1E00
2100
4080
8080
8080
8080
8080
4080
2100
1E00
ENDCHAR
STARTCHAR 0231
ENCODING 561
SWIDTH 504 0
DWIDTH 7 0
BBX 6 11 0 0
BITMAP
78
00
00
10
00
38
44
84
84
44
38
ENDCHAR
STARTCHAR 0232
ENCODING 562
SWIDTH 504 0
DWIDTH 7 0
BBX 7 12 0 0
BITMAP
38
00
82
44
44
28
28
10
10
10
10
10
ENDCHAR
STARTCHAR 0233
ENCODING 563
SWIDTH 432 0
DWIDTH 6 0
BBX 6 12 0 -3
BITMAP
78
00
00
84
48
48
50
30
20
20
20
40
ENDCHAR
STARTCHAR 0237
ENCODING 567
SWIDTH 216 0
DWIDTH 3 0
BBX 3 9 -1 -3
BITMAP
20
20
20
20
20
20
20
20
E0
ENDCHAR
STARTCHAR 0259
ENCODING 601
SWIDTH 432 0
DWIDTH 6 0
BBX 5 6 1 0
BITMAP
F0
08
08
F8
88
70
ENDCHAR
STARTCHAR 02BC
ENCODING 700
SWIDTH 288 0
DWIDTH 4 0
BBX 1 3 1 6
BITMAP
80
80
80
ENDCHAR
STARTCHAR 02C6
ENCODING 710
SWIDTH 504 0
DWIDTH 7 0
BBX 3 2 2 7
BITMAP
40
A0
ENDCHAR
STARTCHAR 02C7
ENCODING 711
SWIDTH 504 0
DWIDTH 7 0
BBX 3 2 2 7
BITMAP
20
C0
ENDCHAR
STARTCHAR 02C9
ENCODING 713
SWIDTH 504 0
DWIDTH 7 0
BBX 4 1 1 7
BITMAP
F0
ENDCHAR
STARTCHAR 02D8
ENCODING 728
SWIDTH 504 0
DWIDTH 7 0
BBX 3 2 2 7
BITMAP
A0
40
ENDCHAR
STARTCHAR 02D9
ENCODING 729
SWIDTH 288 0
DWIDTH 4 0
BBX 1 1 1 7
BITMAP
80
ENDCHAR
STARTCHAR 02DA
ENCODING 730
SWIDTH 432 0
DWIDTH 6 0
BBX 3 3 1 7
BITMAP
60
A0
40
ENDCHAR
STARTCHAR 02DB
ENCODING 731
SWIDTH 360 0
DWIDTH 5 0
BBX 3 3 1 -3
BITMAP
80
80
E0
ENDCHAR
STARTCHAR 02DC
ENCODING 732
SWIDTH 504 0
DWIDTH 7 0
BBX 5 2 1 7
BITMAP
48
B0
ENDCHAR
STARTCHAR 02DD
ENCODING 733
SWIDTH 504 0
DWIDTH 7 0
BBX 4 2 2 8
BITMAP
50
A0
ENDCHAR
STARTCHAR 0300
ENCODING 768
SWIDTH 0 0
DWIDTH 0 0
BBX 3 2 1 7
BITMAP
80
60
ENDCHAR
STARTCHAR 0301
ENCODING 769
SWIDTH 0 0
DWIDTH 0 0
BBX 2 2 2 7
BITMAP
40
80
ENDCHAR
STARTCHAR 0302
ENCODING 770
SWIDTH 0 0
DWIDTH 0 0
BBX 3 2 2 7
BITMAP
40
A0
ENDCHAR
STARTCHAR 0303
ENCODING 771
SWIDTH 0 0
DWIDTH 0 0
BBX 5 2 1 7
BITMAP
08
F0
ENDCHAR
STARTCHAR 0304
ENCODING 772
SWIDTH 0 0
DWIDTH 0 0
BBX 4 1 1 7
BITMAP
F0
ENDCHAR
STARTCHAR 0306
ENCODING 774
SWIDTH 0 0
DWIDTH 0 0
BBX 3 2 2 7
BITMAP
A0
40
ENDCHAR
STARTCHAR 0307
ENCODING 775
SWIDTH 0 0
DWIDTH 0 0
BBX 2 1 1 7
BITMAP
C0
ENDCHAR
STARTCHAR 0308
ENCODING 776
SWIDTH 0 0
DWIDTH 0 0
BBX 4 1 1 7
BITMAP
D0
ENDCHAR
STARTCHAR 0309
ENCODING 777
SWIDTH 0 0
DWIDTH 0 0
BBX 3 3 2 6
BITMAP
E0
20
20
ENDCHAR
STARTCHAR 030A
ENCODING 778
SWIDTH 0 0
DWIDTH 0 0
BBX 2 2 2 7
BITMAP
C0
C0
ENDCHAR
STARTCHAR 030B
ENCODING 779
SWIDTH 0 0
DWIDTH 0 0
BBX 4 2 2 8
BITMAP
50
A0
ENDCHAR
STARTCHAR 030C
ENCODING 780
SWIDTH 0 0
DWIDTH 0 0
BBX 3 2 2 7
BITMAP
A0
40
ENDCHAR
STARTCHAR 030F
ENCODING 783
SWIDTH 0 0
DWIDTH 0 0
BBX 5 2 1 7
BITMAP
90
68
ENDCHAR
STARTCHAR 0311
ENCODING 785
SWIDTH 0 0
DWIDTH 0 0
BBX 3 2 2 7
BITMAP
40
A0
ENDCHAR
STARTCHAR 0312
ENCODING 786
SWIDTH 0 0
DWIDTH 0 0
BBX 1 2 1 7
BITMAP
80
80
ENDCHAR
STARTCHAR 031B
ENCODING 795
SWIDTH 0 0
DWIDTH 0 0
BBX 2 3 3 6
BITMAP
40
40
80
ENDCHAR
STARTCHAR 0323
ENCODING 803
SWIDTH 0 0
DWIDTH 0 0
BBX 2 1 1 -2
BITMAP
C0
ENDCHAR
STARTCHAR 0324
ENCODING 804
SWIDTH 0 0
DWIDTH 0 0
BBX 4 1 1 -2
BITMAP
D0
ENDCHAR
STARTCHAR 0326
ENCODING 806
SWIDTH 0 0
DWIDTH 0 0
BBX 2 2 1 -3
BITMAP
C0
80
ENDCHAR
STARTCHAR 0327
ENCODING 807
SWIDTH 0 0
DWIDTH 0 0
BBX 3 3 1 -3
BITMAP
40
20
E0
ENDCHAR
STARTCHAR 0328
ENCODING 808
SWIDTH 0 0
DWIDTH 0 0
BBX 3 3 1 -3
BITMAP
80
80
E0
ENDCHAR
STARTCHAR 032E
ENCODING 814
SWIDTH 0 0
DWIDTH 0 0
BBX 3 2 2 -2
BITMAP
20
E0
ENDCHAR
STARTCHAR 0331
ENCODING 817
SWIDTH 0 0
DWIDTH 0 0
BBX 4 1 1 -2
BITMAP
F0
ENDCHAR
STARTCHAR 1E80
ENCODING 7808
SWIDTH 792 0
DWIDTH 11 0
BBX 10 12 0 0
BITMAP
0800
0400
8440
8C40
4C40
4C80
5280
5280
5280
5280
2180
2100
ENDCHAR
STARTCHAR 1E81
ENCODING 7809
SWIDTH 648 0
DWIDTH 9 0
BBX 8 9 0 0
BITMAP
18
04
00
89
59
5A
66
66
22
ENDCHAR
STARTCHAR 1E82
ENCODING 7810
SWIDTH 792 0
DWIDTH 11 0
BBX 10 12 0 0
BITMAP
0600
0000
8440
8C40
4C40
4C80
5280
5280
5280
5280
2180
2100
ENDCHAR
STARTCHAR 1E83
ENCODING 7811
SWIDTH 648 0
DWIDTH 9 0
BBX 8 9 0 0
BITMAP
0C
10
00
89
59
5A
66
66
22
ENDCHAR
STARTCHAR 1E84
ENCODING 7812
SWIDTH 792 0
DWIDTH 11 0
BBX 10 12 0 0
BITMAP
1A00
0000
8440
8C40
4C40
4C80
5280
5280
5280
5280
2180
2100
ENDCHAR
STARTCHAR 1E85
ENCODING 7813
SWIDTH 648 0
DWIDTH 9 0
BBX 8 8 0 0
BITMAP
34
00
89
59
5A
66
66
22
ENDCHAR
STARTCHAR 1E9E
ENCODING 7838
SWIDTH 576 0
DWIDTH 8 0
BBX 7 10 1 0
BITMAP
38
C4
88
90
98
84
82
82
84
B8
ENDCHAR
STARTCHAR 1EA0
ENCODING 7840
SWIDTH 576 0
DWIDTH 8 0
BBX 7 12 0 -2
BITMAP
18
18
28
24
24
44
7C
42
82
82
00
10
ENDCHAR
STARTCHAR 1EA1
ENCODING 7841
SWIDTH 504 0
DWIDTH 7 0
BBX 6 8 0 -2
BITMAP
3C
44
84
84
44
3C
00
10
ENDCHAR
STARTCHAR 1EA2
ENCODING 7842
SWIDTH 576 0
DWIDTH 8 0
BBX 7 13 0 1
BITMAP
18
08
00
18
18
28
24
24
44
7C
42
82
82
ENDCHAR
STARTCHAR 1EA3
ENCODING 7843
SWIDTH 504 0
DWIDTH 7 0
BBX 6 9 0 0
BITMAP
38
08
10
3C
44
84
84
44
3C
ENDCHAR
STARTCHAR 1EA4
ENCODING 7844
SWIDTH 576 0
DWIDTH 8 0
BBX 7 14 0 1
BITMAP
02
04
38
00
18
18
28
24
24
44
7C
42
82
82
ENDCHAR
STARTCHAR 1EA5
ENCODING 7845
SWIDTH 504 0
DWIDTH 7 0
BBX 6 12 0 0
BITMAP
08
10
00
10
28
00
3C
44
84
84
44
3C
ENDCHAR
STARTCHAR 1EA6
ENCODING 7846
SWIDTH 576 0
DWIDTH 8 0
BBX 7 14 0 0
BITMAP
0C
02
18
20
18
18
28
24
24
44
7C
42
82
82
ENDCHAR
STARTCHAR 1EA7
ENCODING 7847
SWIDTH 504 0
DWIDTH 7 0
BBX 6 11 0 1
BITMAP
10
00
10
28
00
3C
44
84
84
44
3C
ENDCHAR
STARTCHAR 1EA8
ENCODING 7848
SWIDTH 576 0
DWIDTH 8 0
BBX 7 16 0 0
BITMAP
04
0A
02
04
38
00
18
18
28
24
24
44
7C
42
82
82
ENDCHAR
STARTCHAR 1EA9
ENCODING 7849
SWIDTH 504 0
DWIDTH 7 0
BBX 6 13 0 0
BITMAP
10
08
08
00
10
28
00
3C
44
84
84
44
3C
ENDCHAR
STARTCHAR 1EAA
ENCODING 7850
SWIDTH 576 0
DWIDTH 8 0
BBX 7 14 0 0
BITMAP
3C
00
18
20
18
18
28
24
24
44
7C
42
82
82
ENDCHAR
STARTCHAR 1EAB
ENCODING 7851
SWIDTH 504 0
DWIDTH 7 0
BBX 6 11 0 0
BITMAP
38
00
00
38
00
3C
44
84
84
44
3C
ENDCHAR
STARTCHAR 1EAC
ENCODING 7852
SWIDTH 576 0
DWIDTH 8 0
BBX 7 14 0 -1
BITMAP
18
20
18
18
28
24
24
44
7C
42
82
82
00
10
ENDCHAR
STARTCHAR 1EAD
ENCODING 7853
SWIDTH 504 0
DWIDTH 7 0
BBX 6 11 0 -2
BITMAP
10
28
00
3C
44
84
84
44
3C
00
10
ENDCHAR
STARTCHAR 1EAE
ENCODING 7854
SWIDTH 576 0
DWIDTH 8 0
BBX 7 15 0 0
BITMAP
04
18
00
18
00
18
18
28
24
24
44
7C
42
82
82
ENDCHAR
STARTCHAR 1EAF
ENCODING 7855
SWIDTH 504 0
DWIDTH 7 0
BBX 6 11 0 1
BITMAP
10
00
00
38
00
3C
44
84
84
44
3C
ENDCHAR
STARTCHAR 1EB0
ENCODING 7856
SWIDTH 576 0
DWIDTH 8 0
BBX 7 15 0 0
BITMAP
20
10
00
18
00
18
18
28
24
24
44
7C
42
82
82
ENDCHAR
STARTCHAR 1EB1
ENCODING 7857
SWIDTH 504 0
DWIDTH 7 0
BBX 6 11 0 1
BITMAP
10
00
00
38
00
3C
44
84
84
44
3C
ENDCHAR
STARTCHAR 1EB2
ENCODING 7858
SWIDTH 576 0
DWIDTH 8 0
BBX 7 15 0 0
BITMAP
18
08
00
18
00
18
18
28
24
24
44
7C
42
82
82
ENDCHAR
STARTCHAR 1EB3
ENCODING 7859
SWIDTH 504 0
DWIDTH 7 0
BBX 6 12 0 0
BITMAP
10
08
08
00
38
00
3C
44
84
84
44
3C
ENDCHAR
STARTCHAR 1EB4
ENCODING 7860
SWIDTH 576 0
DWIDTH 8 0
BBX 7 14 0 0
BITMAP
24
18
18
00
18
18
28
24
24
44
7C
42
82
82
ENDCHAR
STARTCHAR 1EB5
ENCODING 7861
SWIDTH 504 0
DWIDTH 7 0
BBX 6 11 0 0
BITMAP
38
00
00
38
00
3C
44
84
84
44
3C
ENDCHAR
STARTCHAR 1EB6
ENCODING 7862
SWIDTH 576 0
DWIDTH 8 0
BBX 7 14 0 -1
BITMAP
18
00
18
18
28
24
24
44
7C
42
82
82
00
10
ENDCHAR
STARTCHAR 1EB7
ENCODING 7863
SWIDTH 504 0
DWIDTH 7 0
BBX 6 10 0 -1
BITMAP
38
00
3C
44
84
84
44
3C
00
10
ENDCHAR
STARTCHAR 1EB8
ENCODING 7864
SWIDTH 504 0
DWIDTH 7 0
BBX 5 12 1 -2
BITMAP
F8
80
80
80
F8
80
80
80
80
F8
00
20
ENDCHAR
STARTCHAR 1EB9
ENCODING 7865
SWIDTH 432 0
DWIDTH 6 0
BBX 6 8 0 -2
BITMAP
78
84
FC
80
40
38
00
10
ENDCHAR
STARTCHAR 1EBA
ENCODING 7866
SWIDTH 504 0
DWIDTH 7 0
BBX 5 14 1 0
BITMAP
20
10
10
00
F8
80
80
80
F8
80
80
80
80
F8
ENDCHAR
STARTCHAR 1EBB
ENCODING 7867
SWIDTH 432 0
DWIDTH 6 0
BBX 6 9 0 0
BITMAP
30
08
10
78
84
FC
80
40
38
ENDCHAR
STARTCHAR 1EBC
ENCODING 7868
SWIDTH 504 0
DWIDTH 7 0
BBX 5 12 1 0
BITMAP
70
00
F8
80
80
80
F8
80
80
80
80
F8
ENDCHAR
STARTCHAR 1EBD
ENCODING 7869
SWIDTH 432 0
DWIDTH 6 0
BBX 6 9 0 0
BITMAP
20
58
00
78
84
FC
80
40
38
ENDCHAR
STARTCHAR 1EBE
ENCODING 7870
SWIDTH 504 0
DWIDTH 7 0
BBX 6 14 1 1
BITMAP
0C
20
50
00
F8
80
80
80
F8
80
80
80
80
F8
ENDCHAR
STARTCHAR 1EBF
ENCODING 7871
SWIDTH 432 0
DWIDTH 6 0
BBX 6 11 0 1
BITMAP
30
00
00
38
00
78
84
FC
80
40
38
ENDCHAR
STARTCHAR 1EC0
ENCODING 7872
SWIDTH 504 0
DWIDTH 7 0
BBX 5 14 1 0
BITMAP
10
28
50
00
F8
80
80
80
F8
80
80
80
80
F8
ENDCHAR
STARTCHAR 1EC1
ENCODING 7873
SWIDTH 432 0
DWIDTH 6 0
BBX 6 12 0 0
BITMAP
20
10
00
00
38
00
78
84
FC
80
40
38
ENDCHAR
STARTCHAR 1EC2
ENCODING 7874
SWIDTH 504 0
DWIDTH 7 0
BBX 5 16 1 0
BITMAP
10
08
08
20
50
00
F8
80
80
80
F8
80
80
80
80
F8
ENDCHAR
STARTCHAR 1EC3
ENCODING 7875
SWIDTH 432 0
DWIDTH 6 0
BBX 6 13 0 0
BITMAP
10
28
10
00
10
68
00
78
84
FC
80
40
38
ENDCHAR
STARTCHAR 1EC4
ENCODING 7876
SWIDTH 504 0
DWIDTH 7 0
BBX 5 14 1 0
BITMAP
70
00
70
00
F8
80
80
80
F8
80
80
80
80
F8
ENDCHAR
STARTCHAR 1EC5
ENCODING 7877
SWIDTH 432 0
DWIDTH 6 0
BBX 6 11 0 0
BITMAP
78
00
00
30
08
78
84
FC
80
40
38
ENDCHAR
STARTCHAR 1EC6
ENCODING 7878
SWIDTH 504 0
DWIDTH 7 0
BBX 5 15 1 -2
BITMAP
20
50
00
F8
80
80
80
F8
80
80
80
80
F8
00
20
ENDCHAR
STARTCHAR 1EC7
ENCODING 7879
SWIDTH 432 0
DWIDTH 6 0
BBX 6 10 0 -1
BITMAP
38
00
78
84
FC
80
40
38
00
10
ENDCHAR
STARTCHAR 1EC8
ENCODING 7880
SWIDTH 216 0
DWIDTH 3 0
BBX 3 14 0 0
BITMAP
40
A0
20
40
40
40
40
40
40
40
40
40
40
40
ENDCHAR
STARTCHAR 1EC9
ENCODING 7881
SWIDTH 144 0
DWIDTH 2 0
BBX 2 10 0 0
BITMAP
C0
40
40
00
80
80
80
80
80
80
ENDCHAR
STARTCHAR 1ECA
ENCODING 7882
SWIDTH 216 0
DWIDTH 3 0
BBX 1 12 1 -2
BITMAP
80
80
80
80
80
80
80
80
80
80
00
80
ENDCHAR
STARTCHAR 1ECB
ENCODING 7883
SWIDTH 216 0
DWIDTH 3 0
BBX 1 12 1 -2
BITMAP
80
00
00
00
80
80
80
80
80
80
00
80
ENDCHAR
STARTCHAR 1ECC
ENCODING 7884
SWIDTH 720 0
DWIDTH 10 0
BBX 9 13 0 -3
BITMAP
1E00
2100
4080
8080
8080
8080
8080
4080
2100
1E00
0000
0000
0800
ENDCHAR
STARTCHAR 1ECD
ENCODING 7885
SWIDTH 504 0
DWIDTH 7 0
BBX 6 8 0 -2
BITMAP
38
44
84
84
44
38
00
10
ENDCHAR
STARTCHAR 1ECE
ENCODING 7886
SWIDTH 720 0
DWIDTH 10 0
BBX 9 13 0 0
BITMAP
1C00
0400
0000
1E00
2100
4080
8080
8080
8080
8080
4080
2100
1E00
ENDCHAR
STARTCHAR 1ECF
ENCODING 7887
SWIDTH 504 0
DWIDTH 7 0
BBX 6 9 0 0
BITMAP
30
08
10
38
44
84
84
44
38
ENDCHAR
STARTCHAR 1ED0
ENCODING 7888
SWIDTH 720 0
DWIDTH 10 0
BBX 9 14 0 0
BITMAP
0100
0200
1C00
0000
1E00
2100
4080
8080
8080
8080
8080
4080
2100
1E00
ENDCHAR
STARTCHAR 1ED1
ENCODING 7889
SWIDTH 504 0
DWIDTH 7 0
BBX 6 11 0 1
BITMAP
10
20
00
38
00
38
44
84
84
44
38
ENDCHAR
STARTCHAR 1ED2
ENCODING 7890
SWIDTH 720 0
DWIDTH 10 0
BBX 9 14 0 0
BITMAP
0400
0300
0C00
1000
1E00
2100
4080
8080
8080
8080
8080
4080
2100
1E00
ENDCHAR
STARTCHAR 1ED3
ENCODING 7891
SWIDTH 504 0
DWIDTH 7 0
BBX 6 12 0 0
BITMAP
20
10
00
00
38
00
38
44
84
84
44
38
ENDCHAR
STARTCHAR 1ED4
ENCODING 7892
SWIDTH 720 0
DWIDTH 10 0
BBX 9 15 0 0
BITMAP
0600
0100
0200
0C00
1000
1E00
2100
4080
8080
8080
8080
8080
4080
2100
1E00
ENDCHAR
STARTCHAR 1ED5
ENCODING 7893
SWIDTH 504 0
DWIDTH 7 0
BBX 6 13 0 0
BITMAP
10
28
10
00
10
28
00
38
44
84
84
44
38
ENDCHAR
STARTCHAR 1ED6
ENCODING 7894
SWIDTH 720 0
DWIDTH 10 0
BBX 9 14 0 0
BITMAP
1E00
0000
0C00
1000
1E00
2100
4080
8080
8080
8080
8080
4080
2100
1E00
ENDCHAR
STARTCHAR 1ED7
ENCODING 7895
SWIDTH 504 0
DWIDTH 7 0
BBX 6 11 0 0
BITMAP
78
00
00
38
00
38
44
84
84
44
38
ENDCHAR
STARTCHAR 1ED8
ENCODING 7896
SWIDTH 720 0
DWIDTH 10 0
BBX 9 15 0 -3
BITMAP
0C00
1000
1E00
2100
4080
8080
8080
8080
8080
4080
2100
1E00
0000
0000
0800
ENDCHAR
STARTCHAR 1ED9
ENCODING 7897
SWIDTH 504 0
DWIDTH 7 0
BBX 6 10 0 -1
BITMAP
38
00
38
44
84
84
44
38
00
10
ENDCHAR
STARTCHAR 1EDA
ENCODING 7898
SWIDTH 720 0
DWIDTH 10 0
BBX 10 13 0 0
BITMAP
0400
0800
0040
1E40
2180
4080
8080
8080
8080
8080
4080
6100
1E00
ENDCHAR
STARTCHAR 1EDB
ENCODING 7899
SWIDTH 504 0
DWIDTH 7 0
BBX 7 9 0 0
BITMAP
18
20
02
3A
44
84
84
44
38
ENDCHAR
STARTCHAR 1EDC
ENCODING 7900
SWIDTH 720 0
DWIDTH 10 0
BBX 10 13 0 0
BITMAP
0800
0400
0040
1E40
2180
4080
8080
8080
8080
8080
4080
6100
1E00
ENDCHAR
STARTCHAR 1EDD
ENCODING 7901
SWIDTH 504 0
DWIDTH 7 0
BBX 7 9 0 0
BITMAP
20
18
02
3A
44
84
84
44
38
ENDCHAR
STARTCHAR 1EDE
ENCODING 7902
SWIDTH 720 0
DWIDTH 10 0
BBX 10 13 0 0
BITMAP
1C00
0400
0800
1E40
2180
4080
8080
8080
8080
8080
4080
6100
1E00
ENDCHAR
STARTCHAR 1EDF
ENCODING 7903
SWIDTH 504 0
DWIDTH 7 0
BBX 7 9 0 0
BITMAP
30
08
12
3A
44
84
84
44
38
ENDCHAR
STARTCHAR 1EE0
ENCODING 7904
SWIDTH 720 0
DWIDTH 10 0
BBX 10 13 0 0
BITMAP
0200
1C00
0040
1E40
2180
4080
8080
8080
8080
8080
4080
6100
1E00
ENDCHAR
STARTCHAR 1EE1
ENCODING 7905
SWIDTH 504 0
DWIDTH 7 0
BBX 7 9 0 0
BITMAP
24
58
02
3A
44
84
84
44
38
ENDCHAR
STARTCHAR 1EE2
ENCODING 7906
SWIDTH 720 0
DWIDTH 10 0
BBX 10 14 0 -3
BITMAP
0040
1E40
2180
4080
8080
8080
8080
8080
4080
6100
1E00
0000
0000
0800
ENDCHAR
STARTCHAR 1EE3
ENCODING 7907
SWIDTH 504 0
DWIDTH 7 0
BBX 7 9 0 -2
BITMAP
02
3A
44
84
84
44
38
00
10
ENDCHAR
STARTCHAR 1EE4
ENCODING 7908
SWIDTH 648 0
DWIDTH 9 0
BBX 7 12 1 -2
BITMAP
82
82
82
82
82
82
82
84
84
78
00
10
ENDCHAR
STARTCHAR 1EE5
ENCODING 7909
SWIDTH 504 0
DWIDTH 7 0
BBX 5 8 1 -2
BITMAP
88
88
88
88
88
70
00
20
ENDCHAR
STARTCHAR 1EE6
ENCODING 7910
SWIDTH 648 0
DWIDTH 9 0
BBX 7 13 1 1
BITMAP
38
10
00
82
82
82
82
82
82
82
84
84
78
ENDCHAR
STARTCHAR 1EE7
ENCODING 7911
SWIDTH 504 0
DWIDTH 7 0
BBX 5 10 1 0
BITMAP
20
50
10
20
88
88
88
88
88
70
ENDCHAR
STARTCHAR 1EE8
ENCODING 7912
SWIDTH 720 0
DWIDTH 10 0
BBX 9 13 1 0
BITMAP
1000
2080
0080
8300
8200
8200
8200
8200
8200
8200
8400
8400
7800
ENDCHAR
STARTCHAR 1EE9
ENCODING 7913
SWIDTH 576 0
DWIDTH 8 0
BBX 7 9 1 0
BITMAP
30
42
02
8A
8C
88
88
88
70
ENDCHAR
STARTCHAR 1EEA
ENCODING 7914
SWIDTH 720 0
DWIDTH 10 0
BBX 9 13 1 0
BITMAP
2000
1080
0080
8300
8200
8200
8200
8200
8200
8200
8400
8400
7800
ENDCHAR
STARTCHAR 1EEB
ENCODING 7915
SWIDTH 576 0
DWIDTH 8 0
BBX 7 9 1 0
BITMAP
60
12
02
8A
8C
88
88
88
70
ENDCHAR
STARTCHAR 1EEC
ENCODING 7916
SWIDTH 720 0
DWIDTH 10 0
BBX 9 14 1 0
BITMAP
1000
2800
1080
0080
8300
8200
8200
8200
8200
8200
8200
8400
8400
7800
ENDCHAR
STARTCHAR 1EED
ENCODING 7917
SWIDTH 576 0
DWIDTH 8 0
BBX 7 10 1 0
BITMAP
20
50
12
22
8A
8C
88
88
88
70
ENDCHAR
STARTCHAR 1EEE
ENCODING 7918
SWIDTH 720 0
DWIDTH 10 0
BBX 9 13 1 0
BITMAP
6000
1800
0080
8300
8200
8200
8200
8200
8200
8200
8400
8400
7800
ENDCHAR
STARTCHAR 1EEF
ENCODING 7919
SWIDTH 576 0
DWIDTH 8 0
BBX 7 9 1 0
BITMAP
48
30
02
8A
8C
88
88
88
70
ENDCHAR
STARTCHAR 1EF0
ENCODING 7920
SWIDTH 720 0
DWIDTH 10 0
BBX 9 14 1 -2
BITMAP
0080
0080
8300
8200
8200
8200
8200
8200
8200
8400
8400
7800
0000
1000
ENDCHAR
STARTCHAR 1EF1
ENCODING 7921
SWIDTH 576 0
DWIDTH 8 0
BBX 7 10 1 -2
BITMAP
02
02
8A
8C
88
88
88
70
00
20
ENDCHAR
STARTCHAR 1EF2
ENCODING 7922
SWIDTH 504 0
DWIDTH 7 0
BBX 7 12 0 0
BITMAP
20
00
82
44
44
28
28
10
10
10
10
10
ENDCHAR
STARTCHAR 1EF3
ENCODING 7923
SWIDTH 432 0
DWIDTH 6 0
BBX 6 12 0 -3
BITMAP
20
10
00
84
48
48
50
30
20
20
20
40
ENDCHAR
STARTCHAR 1EF4
ENCODING 7924
SWIDTH 504 0
DWIDTH 7 0
BBX 7 12 0 -2
BITMAP
82
44
44
28
28
10
10
10
10
10
00
10
ENDCHAR
STARTCHAR 1EF5
ENCODING 7925
SWIDTH 432 0
DWIDTH 6 0
BBX 6 9 0 -3
BITMAP
84
48
48
50
30
20
20
20
40
ENDCHAR
STARTCHAR 1EF6
ENCODING 7926
SWIDTH 504 0
DWIDTH 7 0
BBX 7 14 0 0
BITMAP
10
08
08
00
82
44
44
28
28
10
10
10
10
10
ENDCHAR
STARTCHAR 1EF7
ENCODING 7927
SWIDTH 432 0
DWIDTH 6 0
BBX 6 13 0 -3
BITMAP
20
10
10
00
84
48
48
50
30
20
20
20
40
ENDCHAR
STARTCHAR 1EF8
ENCODING 7928
SWIDTH 504 0
DWIDTH 7 0
BBX 7 12 0 0
BITMAP
38
00
82
44
44
28
28
10
10
10
10
10
ENDCHAR
STARTCHAR 1EF9
ENCODING 7929
SWIDTH 432 0
DWIDTH 6 0
BBX 6 12 0 -3
BITMAP
48
30
00
84
48
48
50
30
20
20
20
40
ENDCHAR
STARTCHAR 2013
ENCODING 8211
SWIDTH 432 0
DWIDTH 6 0
BBX 6 1 0 3
BITMAP
FC
ENDCHAR
STARTCHAR 2014
ENCODING 8212
SWIDTH 792 0
DWIDTH 11 0
BBX 11 1 0 3
BITMAP
FFE0
ENDCHAR
STARTCHAR 2018
ENCODING 8216
SWIDTH 216 0
DWIDTH 3 0
BBX 1 3 1 7
BITMAP
80
80
80
ENDCHAR
STARTCHAR 2019
ENCODING 8217
SWIDTH 216 0
DWIDTH 3 0
BBX 2 3 0 6
BITMAP
C0
40
40
ENDCHAR
STARTCHAR 201A
ENCODING 8218
SWIDTH 216 0
DWIDTH 3 0
BBX 2 3 1 -1
BITMAP
80
C0
80
ENDCHAR
STARTCHAR 201C
ENCODING 8220
SWIDTH 432 0
DWIDTH 6 0
BBX 4 3 1 7
BITMAP
90
F0
D0
ENDCHAR
STARTCHAR 201D
ENCODING 8221
SWIDTH 432 0
DWIDTH 6 0
BBX 4 3 1 6
BITMAP
B0
B0
A0
ENDCHAR
STARTCHAR 201E
ENCODING 8222
SWIDTH 432 0
DWIDTH 6 0
BBX 4 3 1 -1
BITMAP
90
F0
90
ENDCHAR
STARTCHAR 2020
ENCODING 8224
SWIDTH 432 0
DWIDTH 6 0
BBX 4 12 1 -2
BITMAP
40
40
40
F0
40
40
40
40
40
40
40
40
ENDCHAR
STARTCHAR 2021
ENCODING 8225
SWIDTH 432 0
DWIDTH 6 0
BBX 4 10 1 -1
BITMAP
40
40
F0
40
40
F0
40
40
40
40
ENDCHAR
STARTCHAR 2022
ENCODING 8226
SWIDTH 504 0
DWIDTH 7 0
BBX 2 2 2 3
BITMAP
C0
C0
ENDCHAR
STARTCHAR 2026
ENCODING 8230
SWIDTH 720 0
DWIDTH 10 0
BBX 8 2 1 0
BITMAP
01
D9
ENDCHAR
STARTCHAR 2030
ENCODING 8240
SWIDTH 864 0
DWIDTH 12 0
BBX 10 9 1 0
BITMAP
6000
9180
9200
6C00
1000
6880
B540
2540
1880
ENDCHAR
STARTCHAR 2039
ENCODING 8249
SWIDTH 288 0
DWIDTH 4 0
BBX 2 5 1 1
BITMAP
40
80
80
80
40
ENDCHAR
STARTCHAR 203A
ENCODING 8250
SWIDTH 288 0
DWIDTH 4 0
BBX 2 5 1 1
BITMAP
80
80
40
80
80
ENDCHAR
STARTCHAR 2044
ENCODING 8260
SWIDTH 216 0
DWIDTH 3 0
BBX 5 9 -1 0
BITMAP
08
10
10
20
20
40
40
80
80
ENDCHAR
STARTCHAR 2074
ENCODING 8308
SWIDTH 216 0
DWIDTH 3 0
BBX 2 3 0 6
BITMAP
40
C0
C0
ENDCHAR
STARTCHAR 20A1
ENCODING 8353
SWIDTH 504 0
DWIDTH 7 0
BBX 7 11 0 -1
BITMAP
1E
6C
4C
98
98
A8
B0
70
60
7E
A0
ENDCHAR
STARTCHAR 20A3
ENCODING 8355
SWIDTH 432 0
DWIDTH 6 0
BBX 5 10 0 0
BITMAP
78
40
40
40
78
40
40
F0
40
40
ENDCHAR
STARTCHAR 20A4
ENCODING 8356
SWIDTH 576 0
DWIDTH 8 0
BBX 6 10 1 0
BITMAP
78
84
80
80
F8
40
F8
40
E0
9C
ENDCHAR
STARTCHAR 20A6
ENCODING 8358
SWIDTH 648 0
DWIDTH 9 0
BBX 9 10 0 0
BITMAP
4100
6100
6100
5100
5100
FF80
4500
4500
4300
4100
ENDCHAR
STARTCHAR 20A7
ENCODING 8359
SWIDTH 504 0
DWIDTH 7 0
BBX 7 10 0 0
BITMAP
78
44
FE
44
44
78
40
40
40
40
ENDCHAR
STARTCHAR 20A9
ENCODING 8361
SWIDTH 792 0
DWIDTH 11 0
BBX 10 10 0 0
BITMAP
8440
8C40
4C40
4C80
5280
FFC0
5280
5280
2180
2100
ENDCHAR
STARTCHAR 20AB
ENCODING 8363
SWIDTH 504 0
DWIDTH 7 0
BBX 6 12 1 -2
BITMAP
08
08
3C
08
78
88
88
88
88
78
00
F0
ENDCHAR
STARTCHAR 20AC
ENCODING 8364
SWIDTH 648 0
DWIDTH 9 0
BBX 8 10 0 0
BITMAP
0F
30
20
40
FE
40
FE
40
20
1F
ENDCHAR
STARTCHAR 20AD
ENCODING 8365
SWIDTH 504 0
DWIDTH 7 0
BBX 6 10 0 0
BITMAP
44
48
50
50
60
FC
60
50
48
44
ENDCHAR
STARTCHAR 20B1
ENCODING 8369
SWIDTH 504 0
DWIDTH 7 0
BBX 7 10 0 0
BITMAP
78
44
FE
44
FE
44
78
40
40
40
ENDCHAR
STARTCHAR 20B2
ENCODING 8370
SWIDTH 720 0
DWIDTH 10 0
BBX 9 12 0 -2
BITMAP
1E00
6900
4800
8800
8F80
8880
8880
4880
2900
1E00
0800
0800
ENDCHAR
STARTCHAR 20B5
ENCODING 8373
SWIDTH 504 0
DWIDTH 7 0
BBX 7 13 0 -2
BITMAP
08
1E
68
48
88
88
88
88
48
48
3E
08
08
ENDCHAR
STARTCHAR 20B9
ENCODING 8377
SWIDTH 504 0
DWIDTH 7 0
BBX 6 10 1 0
BITMAP
FC
08
FC
08
10
E0
40
40
20
10
ENDCHAR
STARTCHAR 20BA
ENCODING 8378
SWIDTH 432 0
DWIDTH 6 0
BBX 6 10 0 0
BITMAP
40
40
40
58
E0
70
C0
44
48
70
ENDCHAR
STARTCHAR 20BC
ENCODING 8380
SWIDTH 504 0
DWIDTH 7 0
BBX 5 10 1 0
BITMAP
20
70
A8
A8
A8
A8
A8
A8
A8
A8
ENDCHAR
STARTCHAR 20BD
ENCODING 8381
SWIDTH 504 0
DWIDTH 7 0
BBX 6 10 0 0
BITMAP
78
44
44
44
44
F8
40
E0
40
40
ENDCHAR
STARTCHAR 2116
ENCODING 8470
SWIDTH 1152 0
DWIDTH 16 0
BBX 14 10 1 0
BITMAP
8238
C244
C284
A284
9284
9244
8A38
8A00
8600
82FC
ENDCHAR
STARTCHAR 2122
ENCODING 8482
SWIDTH 432 0
DWIDTH 6 0
BBX 4 3 1 7
BITMAP
D0
B0
A0
ENDCHAR
STARTCHAR 2212
ENCODING 8722
SWIDTH 504 0
DWIDTH 7 0
BBX 7 1 0 4
BITMAP
FE
ENDCHAR
STARTCHAR 2215
ENCODING 8725
SWIDTH 504 0
DWIDTH 7 0
BBX 5 10 1 -1
BITMAP
08
10
10
20
20
40
40
40
80
80
ENDCHAR
STARTCHAR 2219
ENCODING 8729
SWIDTH 504 0
DWIDTH 7 0
BBX 2 2 2 3
BITMAP
C0
C0
ENDCHAR
STARTCHAR 2248
ENCODING 8776
SWIDTH 576 0
DWIDTH 8 0
BBX 6 5 1 1
BITMAP
40
B4
08
E4
98
ENDCHAR
STARTCHAR 2260
ENCODING 8800
SWIDTH 576 0
DWIDTH 8 0
BBX 5 6 1 2
BITMAP
10
F8
20
F8
40
80
ENDCHAR
STARTCHAR 2264
ENCODING 8804
SWIDTH 576 0
DWIDTH 8 0
BBX 7 9 0 0
BITMAP
04
18
60
C0
30
0C
00
00
FE
ENDCHAR
STARTCHAR 2265
ENCODING 8805
SWIDTH 576 0
DWIDTH 8 0
BBX 7 9 0 0
BITMAP
40
30
0C
06
18
60
00
00
FE
ENDCHAR
STARTCHAR FB01
ENCODING 64257
SWIDTH 504 0
DWIDTH 7 0
BBX 6 10 0 0
BITMAP
34
40
40
40
F4
44
44
44
44
44
ENDCHAR
STARTCHAR FB02
ENCODING 64258
SWIDTH 504 0
DWIDTH 7 0
BBX 6 10 0 0
BITMAP
34
44
44
44
F4
44
44
44
44
44
ENDCHAR
ENDFONT
